<svg width="40" height="33" viewBox="0 0 40 33" fill="none" xmlns="http://www.w3.org/2000/svg"><path d="M16.996 18.205a2.768 2.768 0 01-1.228-.572 2.707 2.707 0 01-.799-1.082c-.402-1.031-.032-2.214.768-2.948a.453.453 0 00.14-.228 4.356 4.356 0 011.874-.017.096.096 0 00.11-.054.092.092 0 00-.038-.115c-.914-.563-1.973-.769-3.026-.452a4.402 4.402 0 00-2.521 1.98c-.874 1.496-.608 3.388.39 4.742a4.62 4.62 0 01-1.648-.74 4.542 4.542 0 01-1.23-1.31c-.933-1.518-.692-3.522.352-4.915.167-.01.332-.031.496-.065.887-.188 1.75-.97 1.853-1.879.01-.094-.114-.121-.173-.07-.545.47-1.061.877-1.784 1.044-.764.177-1.476-.064-2.075-.513a6.478 6.478 0 011.486-.777c.054-.02.05-.109-.014-.105a5.975 5.975 0 00-1.7.324 4.805 4.805 0 00-1.527.865 6.203 6.203 0 00-1.989 3.006c-.545 1.797-.16 3.802.877 5.364a8.137 8.137 0 01-3.04-2.407C1.311 15.685.825 13.71 1.022 11.726c.202-2.037 1.272-3.899 2.86-5.194C5.364 5.325 7.266 4.75 9.16 4.68c.586.106 1.199.144 1.746.214 1.132.13 2.243.4 3.307.8.077.03.119-.086.054-.127-1.417-.882-2.949-1.555-4.61-1.8-.732-.108-1.71-.288-1.97-1.085-.273-.83.754-1.406 1.394-1.592 2.454-.714 5.214.452 6.877 2.308.197.274.404.541.619.801l.047.07a.324.324 0 00.085.09c.137.162.277.322.421.478 1.052 1.137 2.296 1.951 3.654 2.682.039.02.085-.034.049-.062-1.125-.88-2.114-1.97-3.048-3.04a17.388 17.388 0 01-2.14-3.06 10.589 10.589 0 015.894 2.879 9.618 9.618 0 011.459 1.804c-.437-.65-.967-1.283-1.604-1.707a.05.05 0 00-.06.008.049.049 0 00-.008.058c.517.749 1.12 1.42 1.596 2.2.205.34.383.696.534 1.064a12.154 12.154 0 00-1.036-1.395 11.24 11.24 0 00-3.876-2.919.058.058 0 00-.07.024.056.056 0 00.013.072 14.357 14.357 0 013.46 3.078c.313.392.603.801.868 1.227a10.422 10.422 0 00-2.306-1.857c-.057-.034-.124.048-.072.09 1.163.951 2.066 2.067 2.888 3.287a148.72 148.72 0 00-.914-.638c-.22-.151-.55.003-.611.245-.051.2-.088.404-.11.61-2.843-2.503-7.27-3.28-10.863-2.266-.042.011-.023.068.018.062a13.882 13.882 0 015.912.4c1.822.525 3.42 1.457 4.913 2.58l.012.15c-1.726-1.221-3.898-1.684-6.017-1.554a.03.03 0 00-.02.05.031.031 0 00.02.01c2.285.055 4.38 1.002 6.171 2.35.055.204.12.405.195.603a7.67 7.67 0 00-3.273-1.326c-1.885-.295-4.384.136-5.761 1.54a.04.04 0 00-.003.052.04.04 0 00.051.01c.857-.372 1.655-.779 2.578-.982a7.625 7.625 0 012.972-.037c1.204.218 2.23.744 3.17 1.419a6.33 6.33 0 00-2.79-.424.04.04 0 00-.036.04c0 .01.003.019.01.026a.04.04 0 00.027.012 7.81 7.81 0 014.136 1.71.281.281 0 00.075.044c.08.112.16.222.242.33l.075.1a6.633 6.633 0 00-4.342-.596.051.051 0 00-.036.055.05.05 0 00.017.032c.009.008.02.012.033.013 2.07-.021 3.863.656 5.427 1.894.516.635.97 1.317 1.355 2.036a5.964 5.964 0 00-3.69-1.762c-.082-.008-.1.125-.02.141 1.698.35 2.986 1.46 3.787 2.939.448.829.583 1.778.584 2.706a9.929 9.929 0 01-.114 1.362 15.302 15.302 0 00-1.793-3.764c-.99-1.51-2.396-2.933-4.299-3.133-1.378-.145-2.903.615-3.417 1.895z" fill="#C9A96A"/><path d="M26.068 5.032a5.11 5.11 0 011.84 2.614c.006.022.02.04.04.052a.098.098 0 00.124-.016.094.094 0 00.025-.061 3.887 3.887 0 00-.54-2.049.173.173 0 00.01-.045c.09-1.38.508-2.76 1.67-3.643 1.153-.876 2.535-.825 3.842-.424-.268.194-.51.42-.721.672-.553.663-.731 1.47-.713 2.311a.033.033 0 00.029.032.04.04 0 00.022-.005.033.033 0 00.014-.018c.445-1.254 1.677-2.452 2.977-2.815a3.545 3.545 0 011.75-.027 4.336 4.336 0 011.822 1.138c.68.729.946 1.748.837 2.72a2.572 2.572 0 00-.794-.728c-.875-.514-1.998-.243-2.727.38-.368.316-.542.779-.707 1.216l-.015.039c-.24.633-.68.756-1.302.903-.7.166-1.635.983-.884 1.655a.06.06 0 00.077.004.058.058 0 00.016-.074c-.446-.917 1.43-.854 1.886-1.021a1.42 1.42 0 00.352-.188c.32.328.249.835.004 1.228-.334.537-1.031.804-1.585 1.05-.966.43-2.11 1.074-2.266 2.223-.015.109.147.133.197.053.439-.703 1.077-.966 1.822-1.243a.41.41 0 00.115.053c.624.171.782.781.597 1.34-.232.699-1.052 1.172-1.628 1.561-.551.372-1.18.805-1.44 1.438-.213.518-.36 1.197-.052 1.706a.108.108 0 00.12.047.106.106 0 00.08-.1c-.004-.532.074-.908.449-1.31a5.24 5.24 0 01.679-.606.46.46 0 00.102.078c.592.347.734 1.058.622 1.687-.14.786-.74 1.444-1.25 2.029a17.303 17.303 0 00-2.627 3.959c-.689 1.447-1.17 2.976-1.563 4.523a27.34 27.34 0 00-.12.49 16.173 16.173 0 00-.297-2.845c.307-.915.432-1.969.447-2.95.458-1.137.743-2.32 1.057-3.503.01-.04-.05-.068-.068-.029-.364.72-.74 1.432-1.073 2.165a6.365 6.365 0 00-.115-.551.268.268 0 00.053-.11c.23-.984.456-1.957.824-2.903.394-.97.9-1.89 1.511-2.743.047-.067-.058-.146-.114-.087-1.143 1.217-2.084 2.742-2.56 4.365a23.98 23.98 0 01.564-3.59 18.78 18.78 0 011.395-3.992c1.232-2.58 2.97-4.957 5.158-6.834.012-.01-.004-.03-.017-.022a17.069 17.069 0 00-5.747 6.508 18.784 18.784 0 00-1.48 4.153 13.35 13.35 0 00-.327 2.775c-1.046-2.758-4.332-4.92-3.974-7.978.766.532 1.54 1.056 2.312 1.58l.022.05c.38.808.957 1.762 1.655 2.343.034.028.103.003.083-.047-.295-.712-.674-1.361-.913-2.101a17.056 17.056 0 01-.389-1.43 7.872 7.872 0 00-.265-1.373c-.19-1.327-.172-2.99 1.072-3.68z" fill="#C9A96A"/></svg>