<svg version="1.1" id="Layer_1" xmlns="http://www.w3.org/2000/svg" x="0" y="0" viewBox="0 0 598.1 379.2" xml:space="preserve"><path fill="#FFF" d="M478.4 139.7c-4.8 0-9.6.3-14.3.9-12.9-41.9-51.6-70.6-95.5-70.7-10.9 0-21.8 1.8-32.1 5.4C311 20 250.5-10.1 191 3.1 131.6 16.2 89.3 68.9 89.3 129.7c0 10.5 1.3 21 3.9 31.2C36.6 169.5-3.9 220.3.3 277.4c4.2 57.1 51.7 101.4 109 101.7h369.1c66.1 0 119.7-53.6 119.7-119.7s-53.6-119.7-119.7-119.7zm0 219.5H109.3c-49.2.2-89.4-39.2-90.1-88.4-.7-49.2 38.3-89.8 87.4-91 3.2-.1 6.1-1.7 7.9-4.3 1.8-2.6 2.2-6 1.2-9-19.8-56.7 9.7-118.7 66.1-139.2 56.4-20.5 118.8 8.2 140 64.4 1 2.6 3 4.7 5.5 5.7 2.6 1.1 5.5 1 8-.2 10.4-4.9 21.8-7.4 33.3-7.4 38 .1 70.6 26.8 78.2 64 1.1 5.4 6.4 8.9 11.8 7.8 6.5-1.3 13.1-2 19.8-2 55.1 0 99.8 44.7 99.8 99.8 0 55.1-44.7 99.8-99.8 99.8z"/></svg>