<svg width="471" height="224" viewBox="0 0 471 224" fill="none" xmlns="http://www.w3.org/2000/svg"><path d="M162.092 182.586c0 1.035-.216 1.927-.647 2.678a5.051 5.051 0 01-1.76 1.811c-.776.483-1.664.833-2.665 1.048-.992.216-2.109.323-3.351.323h-1.501v5.163c0 .31.057.582.169.815.12.224.345.405.672.543.173.069.453.143.841.22.389.078.716.13.984.156v1.009h-9.95v-1.009l.997-.104c.414-.052.703-.112.866-.181.337-.138.557-.306.66-.505.112-.198.168-.474.168-.828v-12.951c0-.301-.051-.56-.155-.776-.103-.224-.328-.41-.673-.556a4.832 4.832 0 00-.97-.272 11.96 11.96 0 00-.893-.168v-1.009h10.131c2.372 0 4.144.379 5.317 1.138 1.173.751 1.76 1.902 1.76 3.455zm-5.046.66c0-1.38-.28-2.402-.841-3.067-.552-.673-1.54-1.009-2.963-1.009h-1.074v8.06h.544c1.414 0 2.488-.323 3.221-.97.742-.656 1.113-1.66 1.113-3.014zm27.932 13.106h-10.001v-1.009a13.184 13.184 0 001.643-.247c.629-.137.944-.306.944-.504 0-.069-.008-.147-.026-.233a1.319 1.319 0 00-.103-.349l-1.566-3.804h-6.339c-.147.354-.311.768-.492 1.242-.172.475-.323.897-.453 1.268-.164.483-.263.832-.297 1.048a4.453 4.453 0 00-.039.453c0 .276.207.513.621.712.422.189 1.121.327 2.096.414v1.009h-7.53v-1.009c.285-.017.604-.061.957-.13.363-.078.647-.181.854-.311.354-.206.651-.461.893-.763.25-.302.457-.66.621-1.074 1-2.423 2.001-4.851 3.002-7.284l3.338-8.047h2.587c1.691 4.158 3.015 7.444 3.972 9.858a290.177 290.177 0 002.445 6.004c.113.258.255.496.427.711.173.208.419.406.738.595.241.139.522.242.841.311.319.069.608.113.867.13v1.009zm-9.639-7.427l-2.665-6.65-2.627 6.65h5.292zm28.475-5.679h-.996c-.268-.785-.699-1.627-1.294-2.524-.587-.897-1.13-1.379-1.63-1.448a17.051 17.051 0 00-1.022-.091 16.725 16.725 0 00-1.048-.039h-.608v14.4c0 .31.055.587.168.828.112.233.332.418.66.557.198.077.504.159.918.246.422.077.781.133 1.074.168v1.009h-10.234v-1.009c.25-.026.599-.061 1.048-.104.457-.052.768-.112.931-.181.337-.138.561-.323.673-.556.112-.234.168-.509.168-.829v-14.529h-.608c-.293 0-.642.013-1.048.039-.405.026-.746.056-1.022.091-.5.069-1.048.551-1.643 1.448-.586.897-1.013 1.739-1.281 2.524h-.996v-5.253h17.79v5.253zm24.231 13.106h-7.271c-1.096-1.682-2.083-3.088-2.963-4.218-.88-1.13-2.005-2.549-3.377-4.257h-.672v5.771c0 .31.055.573.168.789.112.216.336.396.672.543.156.069.384.138.687.207.31.069.616.121.918.156v1.009h-9.755v-1.009c.232-.017.56-.044.983-.078.431-.035.733-.086.905-.155.311-.121.527-.289.648-.505.12-.215.18-.487.18-.815v-13.016c0-.301-.051-.556-.155-.763-.103-.207-.328-.392-.673-.556a4.63 4.63 0 00-.97-.298c-.38-.077-.686-.129-.918-.155v-1.009h10.079v1.009c-.268.026-.591.064-.971.116-.371.043-.69.108-.958.194-.336.113-.56.29-.672.531a1.867 1.867 0 00-.168.802v6.184h.543c.673-.612 1.458-1.35 2.355-2.212.897-.863 1.591-1.57 2.082-2.122.691-.768 1.195-1.376 1.515-1.824.327-.449.491-.837.491-1.165 0-.146-.155-.258-.465-.336-.311-.078-.785-.133-1.424-.168v-1.009h7.983v1.009c-.966.103-1.777.28-2.433.53-.655.242-1.306.651-1.953 1.229a53.043 53.043 0 00-2.29 2.161c-.596.604-1.363 1.38-2.303 2.329a312.251 312.251 0 012.989 3.713 270.504 270.504 0 003.48 4.27c.293.353.629.694 1.009 1.022.379.319.798.577 1.255.776.215.095.461.168.737.22.277.052.514.082.712.091v1.009zm18.642-16.315a9.024 9.024 0 012.148 3.001c.535 1.173.802 2.51.802 4.011 0 1.337-.224 2.61-.673 3.817-.448 1.208-1.095 2.247-1.941 3.118a9.568 9.568 0 01-3.13 2.122c-1.199.5-2.627.75-4.283.75-1.337 0-2.601-.219-3.791-.659a9.387 9.387 0 01-3.144-1.915 8.96 8.96 0 01-2.134-2.989c-.527-1.173-.79-2.48-.79-3.92 0-1.501.255-2.86.763-4.076.518-1.225 1.225-2.273 2.123-3.144a9.138 9.138 0 013.156-1.966 10.895 10.895 0 013.908-.699c1.371 0 2.656.224 3.855.673 1.208.448 2.251 1.074 3.131 1.876zm-3.325 13.132c.388-.785.668-1.674.841-2.665.173-.993.259-2.113.259-3.364 0-1.061-.078-2.092-.233-3.092-.147-1.01-.401-1.907-.764-2.692-.371-.785-.862-1.414-1.474-1.888-.613-.475-1.376-.712-2.29-.712-1.561 0-2.747.742-3.558 2.225-.811 1.475-1.216 3.562-1.216 6.262 0 1.148.086 2.23.258 3.248.182 1.018.462 1.906.841 2.665.389.768.88 1.367 1.475 1.799.595.422 1.329.634 2.2.634.854 0 1.586-.216 2.199-.648.612-.431 1.1-1.022 1.462-1.772zm29.523-14.141a4.11 4.11 0 00-.815.155 3.622 3.622 0 00-.802.362c-.371.216-.66.449-.867.699-.199.241-.397.578-.595 1.009-.268.595-.643 1.467-1.126 2.613-.483 1.139-1.035 2.437-1.656 3.895a935.678 935.678 0 00-1.799 4.308c-.637 1.561-1.25 3.058-1.836 4.489h-2.601c-1.208-2.958-2.437-5.963-3.687-9.017a531.337 531.337 0 00-2.64-6.365c-.198-.432-.392-.755-.582-.971-.181-.225-.475-.453-.88-.686a3.487 3.487 0 00-.776-.336 5.962 5.962 0 00-.893-.181v-1.009h9.949v.983c-.931.112-1.565.233-1.901.362-.328.121-.492.276-.492.466 0 .095.013.198.039.31l.143.428c.275.759.775 2.001 1.5 3.726a574.302 574.302 0 013.221 7.866 422.24 422.24 0 002.174-5.447c.578-1.483 1.087-2.795 1.527-3.933.216-.552.392-1.065.53-1.54.147-.483.22-.845.22-1.086 0-.277-.198-.505-.595-.686-.397-.19-1.13-.328-2.2-.414v-1.035h7.44v1.035zm9.663 17.815a11.5 11.5 0 01-3.144-.414c-.966-.275-1.785-.603-2.458-.983l-.893.906h-1.099l-.168-6.638h1.112a17 17 0 00.958 1.993 9.685 9.685 0 001.345 1.876 6.999 6.999 0 001.759 1.41c.656.362 1.419.544 2.29.544 1.174 0 2.07-.285 2.692-.855.629-.577.944-1.302.944-2.173 0-.716-.267-1.315-.802-1.799-.526-.491-1.346-.914-2.458-1.267l-2.006-.647a36.093 36.093 0 01-1.708-.608c-1.233-.492-2.152-1.195-2.755-2.109-.595-.914-.893-1.936-.893-3.067 0-.715.155-1.401.465-2.056a5.469 5.469 0 011.359-1.786c.57-.492 1.298-.893 2.187-1.203.888-.311 1.855-.466 2.898-.466 1.018 0 1.971.142 2.859.427.889.276 1.587.556 2.096.841l.789-.776h1.126l.103 6.261h-1.112a22.214 22.214 0 00-.919-2.056c-.345-.708-.711-1.294-1.099-1.76a4.937 4.937 0 00-1.462-1.19c-.553-.302-1.199-.453-1.941-.453-.932 0-1.695.263-2.29.789-.587.526-.88 1.177-.88 1.954 0 .732.254 1.332.763 1.798.518.466 1.32.875 2.407 1.229.638.216 1.289.431 1.953.647.665.216 1.256.423 1.773.621 1.251.483 2.199 1.151 2.846 2.005.656.845.983 1.898.983 3.157 0 .794-.185 1.562-.555 2.304a5.362 5.362 0 01-1.501 1.85 7.636 7.636 0 01-2.394 1.254c-.906.294-1.963.44-3.17.44zm32.667-.491h-7.271c-1.096-1.682-2.083-3.088-2.963-4.218-.88-1.13-2.005-2.549-3.377-4.257h-.673v5.771c0 .31.057.573.169.789.112.216.336.396.673.543.155.069.383.138.685.207.31.069.617.121.918.156v1.009h-9.754v-1.009c.232-.017.56-.044.983-.078.431-.035.733-.086.905-.155.311-.121.527-.289.647-.505.121-.215.181-.487.181-.815v-13.016c0-.301-.052-.556-.155-.763-.103-.207-.328-.392-.673-.556a4.611 4.611 0 00-.97-.298 11.026 11.026 0 00-.918-.155v-1.009H303.7v1.009c-.267.026-.591.064-.97.116-.371.043-.69.108-.957.194-.337.113-.561.29-.673.531a1.883 1.883 0 00-.169.802v6.184h.544c.673-.612 1.458-1.35 2.355-2.212.896-.863 1.591-1.57 2.083-2.122.689-.768 1.194-1.376 1.513-1.824.328-.449.492-.837.492-1.165 0-.146-.155-.258-.466-.336-.31-.078-.785-.133-1.423-.168v-1.009h7.983v1.009c-.966.103-1.777.28-2.433.53-.655.242-1.306.651-1.953 1.229a53.043 53.043 0 00-2.29 2.161c-.595.604-1.363 1.38-2.304 2.329a293.274 293.274 0 012.989 3.713 276.23 276.23 0 003.481 4.27c.293.353.63.694 1.009 1.022.379.319.798.577 1.255.776a3.4 3.4 0 00.737.22c.276.052.514.082.712.091v1.009zm11.785 0h-10.182v-1.009l1.022-.078c.457-.035.772-.086.944-.155.32-.13.535-.298.647-.505.121-.215.181-.487.181-.815v-13.016c0-.293-.056-.552-.168-.776-.112-.224-.332-.405-.66-.543a5.428 5.428 0 00-.918-.259 9.788 9.788 0 00-1.048-.194v-1.009H327v1.009a30.35 30.35 0 00-.971.116 5.093 5.093 0 00-.983.194c-.336.113-.56.29-.673.531-.112.233-.168.5-.168.802v13.003c0 .31.056.577.168.802.122.215.345.392.673.53.181.078.479.155.893.233.423.069.776.113 1.061.13v1.009zM196.402 51.502h-12.53V50.2c.272-.022.67-.055 1.193-.1.522-.045.882-.111 1.078-.2.403-.168.681-.385.833-.652.153-.279.229-.63.229-1.053v-8.17h-9.9v7.987c0 .378.076.718.229 1.019.163.3.435.534.817.701.207.09.56.184 1.061.284.501.1.91.162 1.226.184v1.303h-12.53V50.2c.272-.011.67-.044 1.193-.1.533-.067.92-.145 1.159-.234.393-.145.665-.362.817-.651.153-.301.229-.652.229-1.053V31.387c0-.39-.071-.718-.212-.986-.131-.267-.409-.5-.834-.701-.315-.145-.729-.273-1.241-.384-.512-.123-.882-.195-1.111-.218v-1.303h12.53v1.303c-.338.023-.741.078-1.209.167-.468.09-.828.173-1.078.251-.425.145-.708.379-.85.702a2.58 2.58 0 00-.196 1.002v7.084h9.9v-6.917c0-.39-.071-.718-.213-.986-.141-.267-.424-.5-.849-.701-.283-.134-.664-.256-1.144-.368a8.752 8.752 0 00-1.127-.234v-1.303h12.53v1.303c-.349.023-.741.073-1.176.15a7.744 7.744 0 00-1.177.268c-.414.145-.692.373-.833.685a2.445 2.445 0 00-.212 1.02v16.79c0 .4.071.74.212 1.019.141.278.419.512.833.701.262.112.637.212 1.128.301.501.09.909.145 1.225.167v1.303zm25.678-21.067c1.143 1.07 2.047 2.361 2.712 3.876.675 1.515 1.013 3.241 1.013 5.179 0 1.726-.284 3.37-.85 4.929-.567 1.559-1.384 2.901-2.451 4.026a12.076 12.076 0 01-3.953 2.74c-1.514.646-3.316.969-5.407.969-1.688 0-3.284-.284-4.787-.852a11.774 11.774 0 01-3.969-2.473c-1.133-1.058-2.031-2.344-2.695-3.86-.665-1.514-.997-3.201-.997-5.061 0-1.938.321-3.693.964-5.263.654-1.582 1.546-2.935 2.679-4.06 1.122-1.102 2.45-1.949 3.986-2.54 1.546-.6 3.191-.901 4.934-.901 1.731 0 3.354.29 4.867.868 1.525.58 2.842 1.387 3.954 2.423zm-4.199 16.957c.49-1.013.844-2.16 1.063-3.441.217-1.281.326-2.729.326-4.344 0-1.37-.098-2.701-.294-3.993-.185-1.303-.507-2.461-.964-3.475-.469-1.014-1.089-1.827-1.862-2.44-.774-.612-1.737-.918-2.891-.918-1.972 0-3.469.958-4.493 2.873-1.023 1.905-1.535 4.6-1.535 8.087 0 1.481.108 2.879.326 4.193.229 1.314.583 2.462 1.062 3.442.49.991 1.111 1.765 1.862 2.322.752.546 1.678.819 2.778.819 1.078 0 2.004-.279 2.776-.836.773-.557 1.389-1.32 1.846-2.289zm33.781-12.814h-1.258c-.337-1.013-.882-2.1-1.634-3.258-.74-1.158-1.426-1.782-2.058-1.87a21.466 21.466 0 00-1.291-.118c-.512-.033-.952-.05-1.323-.05h-.768v18.595c0 .4.071.757.213 1.07.142.3.42.54.833.718.251.1.637.206 1.16.317.534.1.985.173 1.356.217v1.303H233.97V50.2c.316-.033.757-.078 1.323-.133.578-.067.97-.145 1.176-.234.425-.179.709-.418.85-.719.142-.3.213-.657.213-1.069V29.282h-.768c-.371 0-.812.017-1.323.05-.512.034-.943.073-1.291.117-.631.09-1.323.713-2.075 1.871-.74 1.159-1.28 2.245-1.617 3.258H229.2v-6.783h22.462v6.783zm23.914-.735h-1.242c-.316-.902-.86-1.815-1.634-2.74-.773-.924-1.54-1.47-2.303-1.637-.326-.078-.784-.123-1.372-.134a38.606 38.606 0 00-1.438-.033h-3.365v9.155h2.385a5.75 5.75 0 001.634-.217c.49-.145.936-.423 1.34-.835.25-.257.501-.708.751-1.354.261-.646.43-1.208.506-1.687h1.242v9.89h-1.242c-.065-.467-.234-1.052-.506-1.754-.261-.713-.512-1.203-.751-1.47a2.73 2.73 0 00-1.275-.819c-.49-.155-1.056-.233-1.699-.233h-2.385v6.833c0 .712.049 1.28.147 1.704.109.412.305.73.588.952.273.212.643.35 1.112.418.478.067 1.126.1 1.943.1.381 0 .838-.006 1.372-.017a12.243 12.243 0 001.405-.1 8.53 8.53 0 001.274-.25c.403-.112.703-.273.899-.485.523-.546 1.111-1.376 1.764-2.49.653-1.124 1.084-1.965 1.291-2.522h1.192l-.441 7.384h-21.743V50.2a24.88 24.88 0 001.242-.133c.523-.067.892-.145 1.111-.234.414-.179.691-.401.833-.669.141-.278.212-.629.212-1.052V31.387c0-.4-.06-.73-.18-.986-.119-.267-.408-.506-.865-.718-.284-.134-.681-.256-1.193-.367a14.736 14.736 0 00-1.16-.218v-1.303h20.551v6.048zm27.409 10.058l-.457 7.601h-21.351V50.2a32.24 32.24 0 001.339-.15c.512-.078.85-.15 1.013-.217.392-.156.664-.373.817-.652.152-.278.229-.635.229-1.07V31.388c0-.4-.061-.73-.18-.986-.12-.267-.408-.506-.866-.718a5.213 5.213 0 00-1.225-.367c-.469-.1-.844-.173-1.127-.218v-1.303h12.725v1.303c-.348.034-.762.084-1.241.15a6.6 6.6 0 00-1.225.251c-.425.145-.708.373-.849.685a2.386 2.386 0 00-.213 1.036v15.588c0 .735.049 1.314.147 1.737.098.423.289.735.572.936.283.211.675.35 1.176.417.511.056 1.214.084 2.107.084.872 0 1.716-.05 2.532-.15.828-.112 1.421-.346 1.781-.702.555-.568 1.121-1.364 1.698-2.39a24.71 24.71 0 001.406-2.84h1.192zm8.123 41.145l-25.287 30.706-1.334-1.179 25.623-30.366.998.839zm3.78-1.787l-3.568 1.964-1.507-1.265 1.317-3.854 7.282-4.855-3.524 8.01z" fill="#C9A96A"/><path fill-rule="evenodd" clip-rule="evenodd" d="M209.112 88.668h.002l.152-.05-.154.05zm-.511 49.22a.1.1 0 00-.015.007l-.012-.003-.018-.003-.034-.006a3.02 3.02 0 00.097-.004l-.018.009z" fill="#C9A96A"/><path fill-rule="evenodd" clip-rule="evenodd" d="M208.601 137.888l.018-.009a3.02 3.02 0 01-.097.004l.034.006.018.003.012.003.015-.007z" fill="#C9A96A"/><path fill-rule="evenodd" clip-rule="evenodd" d="M208.619 137.879a3.02 3.02 0 01-.097.004l.034.006.018.003.012.003.015-.007.018-.009z" fill="#C9A96A"/><path fill-rule="evenodd" clip-rule="evenodd" d="M208.619 137.879a3.02 3.02 0 01-.097.004l.034.006.018.003.012.003.015-.007.018-.009z" fill="#C9A96A"/><path fill-rule="evenodd" clip-rule="evenodd" d="M208.619 137.879a3.02 3.02 0 01-.097.004l.034.006.018.003.012.003.015-.007.018-.009z" fill="#C9A96A"/><path fill-rule="evenodd" clip-rule="evenodd" d="M208.619 137.879a3.02 3.02 0 01-.097.004l.034.006.018.003.012.003.015-.007.018-.009zm-5.631-33.869a.062.062 0 00.013.001l.003.001-.016-.002zm-6.164 26.761l-.022-.01-.01-.006.032.016zm1.477-2.276l-.028.008.028-.008zm65.823-39.827h-.001a22.508 22.508 0 01-.153-.05l.154.05zm.512 49.22l.014.007.012-.003.019-.003.034-.006a3.02 3.02 0 01-.097-.004l.018.009z" fill="#C9A96A"/><path fill-rule="evenodd" clip-rule="evenodd" d="M264.636 137.888l-.018-.009.097.004-.034.006-.019.003-.012.003-.014-.007z" fill="#C9A96A"/><path fill-rule="evenodd" clip-rule="evenodd" d="M264.618 137.879l.097.004-.034.006-.019.003-.012.003-.014-.007-.018-.009z" fill="#C9A96A"/><path fill-rule="evenodd" clip-rule="evenodd" d="M264.618 137.879l.097.004-.034.006-.019.003-.012.003-.014-.007-.018-.009z" fill="#C9A96A"/><path fill-rule="evenodd" clip-rule="evenodd" d="M264.618 137.879l.097.004-.034.006-.019.003-.012.003-.014-.007-.018-.009z" fill="#C9A96A"/><path fill-rule="evenodd" clip-rule="evenodd" d="M264.618 137.879l.097.004-.034.006-.019.003-.012.003-.014-.007-.018-.009zm5.631-33.869l-.012.001-.003.001.015-.002zm6.164 26.761l.021-.01.011-.006-.032.016zm-1.477-2.276a.276.276 0 01.027.008l-.027-.008z" fill="#C9A96A"/><path d="M253.268 87.218c.495-.077 1.312-.368 2.168-.719 1.615-.662 3.37-1.535 3.375-1.587 1.633.434 2.522 1.152 3.339 2.185.388.491.71.931.934 1.395.183.38.301.775.335 1.227a4.827 4.827 0 00-2.356-1.155c-.093-.019-.116.117-.028.142.693.204 1.322.58 1.827 1.093-.989-.28-2.181-.022-3.163.192-.089.02-.177.038-.263.056-1.765.375-3.453.32-5.21-.023-.636-.123-1.211-.275-1.776-.423-1.031-.271-2.024-.532-3.277-.597.187-.04.373-.08.557-.11.64-.102 1.286-.18 1.932-.223 1.332-.098 2.003-.07 3.327.084a.03.03 0 00.021-.006.027.027 0 00.011-.018.026.026 0 00-.004-.02.029.029 0 00-.017-.013l-.03-.007c-1.301-.306-1.987-.467-3.336-.48-.157 0-.312 0-.469.004a24.838 24.838 0 012.075-.386l.163-.023.379-.054c.854-.12 1.4-.18 2.412-.181.617.001 1.228.003 1.843.059.164.015.329.035.495.056.37.045.741.09 1.111.079a.042.042 0 00.024-.01.037.037 0 00.013-.024.04.04 0 00-.022-.044c-.488-.19-1.037-.255-1.562-.316l-.152-.017-.166-.02a27.842 27.842 0 00-1.702-.168c-1.157-.068-1.652-.05-2.808.052zm-3.572 60.432c.998-1.665 1.505-2.614 2.763-3.605.933-.713 2.126-.967 3.233-.615v-.087a.16.16 0 01-.044-.004 8.52 8.52 0 01-.306-.08 3.972 3.972 0 00-.679-.143c-.339-.031-.696.019-1.029.076-.012.002-.022-.014-.009-.021a3.05 3.05 0 011.456-.322 2.896 2.896 0 00-.509-.057c-.512-.012-1.053.055-1.519.278-.023.012-.045-.021-.021-.033.814-.451 1.903-.768 2.808-.385.045-.102.102-.2.168-.289.171-.221.401-.392.662-.492.052-.021.081.057.039.085-.63.426-.787 1.373-.433 2.017.081.146.192.274.325.375.741.36 1.637-.014 1.99-.805.474-1.064-.22-2.147-1.06-2.771-.023-.017.004-.051.028-.039 1.144.593 1.874 1.9 1.305 3.15a1.583 1.583 0 01-.493.599c.568-.275.891-.868.987-1.489.123-.796-.263-1.555-.835-2.081-1.28-1.174-3.256-.939-4.717-.257-1.474.687-2.651 1.909-3.378 3.351-.728 1.442-.846 2.033-.732 3.644zm16.513-48.875a4.367 4.367 0 01-2.276-.367c-1.069-.485-1.856-1.417-2.069-2.56a2.589 2.589 0 01-.076.042.194.194 0 01.016.041c.027.101.05.202.073.302l.001.006.003.01c.051.221.101.439.192.656.133.313.345.604.553.87.008.01-.002.026-.014.019a3.043 3.043 0 01-.972-1.132c.05.164.113.323.19.476.231.457.546.903.963 1.207.021.015.002.05-.02.035-.781-.505-1.575-1.314-1.665-2.294a1.498 1.498 0 01-.334-.011 1.536 1.536 0 01-.746-.352c-.043-.035.011-.098.057-.074.672.353 1.581.045 1.981-.571.091-.14.152-.298.177-.463-.032-.824-.785-1.437-1.649-1.374-1.162.084-1.788 1.207-1.942 2.243-.004.028-.047.02-.048-.006-.018-1.29.791-2.55 2.161-2.638a1.56 1.56 0 01.76.15c-.51-.37-1.185-.374-1.778-.165-.76.267-1.247.965-1.44 1.718-.43 1.683.71 3.314 2.001 4.28 1.302.974 2.936 1.434 4.55 1.394.339-.008.72-.08 1.111-.187.011-.412.092-.849.24-1.255zm-10.278-13.167c1.806-.8 3.057-1.588 3.705-2.072-.522.149-.749.142-1.606.251-.626.073-1.254.232-2.099.307-.722.065-1.28.034-1.906 0-1.173-.062-2.245-.643-2.86-1.628l-.056.066c.011.01.021.02.03.032.064.086.123.173.182.259.129.19.257.378.424.549.237.243.541.437.832.61.011.006.008.025-.006.022a3.047 3.047 0 01-1.318-.7 3.1 3.1 0 00.35.374c.382.341.838.642 1.338.773.024.007.02.045-.006.04-.912-.186-1.947-.65-2.387-1.529a1.547 1.547 0 01-.315.111 1.54 1.54 0 01-.824-.055c-.052-.018-.024-.095.027-.09.754.085 1.488-.534 1.636-1.254a1.183 1.183 0 00-.004-.496c-.331-.755-1.255-1.051-2.036-.678-1.052.503-1.225 1.776-.991 2.797.007.027-.037.037-.046.011-.487-1.193-.194-2.661 1.049-3.244.239-.108.501-.155.763-.136-.61-.16-1.24.084-1.716.493-.61.527-.809 1.354-.714 2.126.212 1.723 1.87 2.826 3.424 3.255 1.568.432 3.255.544 4.744-.082a2.41 2.41 0 01.386-.112zm19.939-1.401a16.293 16.293 0 01-1.197 4.896c.408.18.809.377 1.2.59a15.248 15.248 0 013.373 2.49c.801-.112 1.532-.311 2.197-.902.617-.549.942-1.225 1.181-1.976-.255.101-.512.197-.77.294-.248.093-.497.186-.744.284-.426.169-.818.399-1.212.63-.207.12-.414.243-.627.356-.026.014-.053-.022-.03-.044.356-.322.765-.582 1.171-.84.162-.104.325-.207.483-.314.437-.3.898-.56 1.379-.777a4.678 4.678 0 00-.809-.079 4.482 4.482 0 00-1.491.292c-.87.311-1.607.919-2.287 1.544-.031.028-.088 0-.071-.045.366-.994 1.194-1.734 2.119-2.15.002 0 .004 0 .006-.002l.003-.001.007-.003.011-.004c1.003-.656 1.734-1.593 2.03-2.795a4.248 4.248 0 00-.154-2.471 6.083 6.083 0 01-.787 1.681 4.603 4.603 0 01-1.01 1.095c-.333.256-.711.373-1.096.492l-.14.043c-.028.01-.051-.032-.027-.052.248-.203.459-.457.668-.708l.188-.224.069-.08c.193-.223.383-.444.559-.679.288-.87-.031-1.794-.344-2.7-.178-.516-.355-1.026-.417-1.52-.074-.593-.014-1.228.267-1.759-.78.455-.991 1.526-.949 2.49.017.4.073.797.128 1.193.132.952.262 1.895-.133 2.836l-.002.004-.004.003a.013.013 0 01-.009 0h-.001c-.003 0-.004-.002-.006-.005s-.002-.006-.002-.009c.201-.924-.005-1.812-.211-2.702-.173-.746-.346-1.494-.281-2.266.068-.806.573-1.75 1.307-2.14a2.81 2.81 0 00-1.309.605c-.967.799-1.871 2.009-1.711 3.203-.016.989-.209 1.46-.389 1.9a6.907 6.907 0 00-.126.326zm-3.312 8.456c.961.375 2.032 1.355 2.651 2.86.335.815.28 1.738.131 2.606.431.71.635 1.534.588 2.362-.001.005-.002.009-.006.012l-.005.004-.002.001h-.003a.02.02 0 01-.013-.002.018.018 0 01-.007-.01 9.434 9.434 0 00-.396-1.155 4.68 4.68 0 01-1.069 3.462c-.011.013-.029-.003-.022-.017a5.214 5.214 0 00.575-3.561l-.015.03a38.088 38.088 0 01-.486 1.939c-.015.052-.1.043-.095-.013.029-.402.066-.802.11-1.202a3.744 3.744 0 01-2.534 1.373c-.816.082-1.586-.257-2.162-.81-.459-.439-.909-1.23-.743-1.887a3.7 3.7 0 01-.877-.13c-.217.827-.239 1.593.193 2.38.394.714 1.141 1.206 1.935 1.364.041.009.022.068-.018.062-1.811-.248-3.249-2.168-2.496-3.933a3.336 3.336 0 01-.388-.184 4.686 4.686 0 00-.462.853 3.489 3.489 0 00-.2 1.296c.02.848.452 1.608 1.058 2.181.622.588 1.47.86 2.318.844.408-.018.81-.099 1.192-.241.357-.122.684-.432 1.045-.522.114-.465.48-.906.941-.975h.009a.04.04 0 01.015.003c.007.004.013.01.016.017a.033.033 0 01.001.024.036.036 0 01-.015.019c-.761.454-.453 1.309-.12 1.933.267.5.575.944.744 1.458 1.101-.788 2.027-1.784 2.602-3.021a4.89 4.89 0 00-.173-4.45.445.445 0 01-.034-.077c-.463-.479-.534-1.092-.351-1.749.017-.061.096-.04.103.014.107.801.844 1.34 1.529 1.638.415.181.841.385 1.148.694a3.37 3.37 0 00.08-1.599 7.74 7.74 0 00-2.758-2.734.049.049 0 01-.019-.026.051.051 0 01.002-.032.047.047 0 01.022-.024.05.05 0 01.033-.005c2.444.614 4.013 2.724 4.319 5.146.167 1.324-.135 2.689-.746 3.868-.329.636-.849 1.17-1.098 1.847-.193.52-.03 1.472.651 1.35l.019-.003a.885.885 0 00.144-.043.376.376 0 01.19-.025 6.461 6.461 0 001.258-.437c.434-.358.738-.85.985-1.362.022-.045.091-.021.091.024.015 1.174-.967 2.18-2.041 2.53l-.018.005a2.344 2.344 0 01-.832.316c-.34.069-.691.085-1.034.144-.484.083-.761.327-1.011.73-.378.607-.847 1.014-1.599 1.025a1.453 1.453 0 01-1.018-.418c-.071.795.587 1.54 1.336 1.85.055.023.109.043.164.062 2.212.466 4.73-.326 5.998-2.265a.07.07 0 01.045-.031.073.073 0 01.086.05.065.065 0 01-.005.053c-.491 1.132-1.208 2.022-2.317 2.553a.33.33 0 01-.163.106 10.92 10.92 0 01-.352.105 4.955 4.955 0 01-.784.201c.409.489 1.176.427 1.785.231.823-.266 1.519-.831 2.139-1.405a.045.045 0 01.029-.012.044.044 0 01.045.035.043.043 0 01-.004.031c-.557.896-1.478 1.698-2.486 2.047a1.856 1.856 0 01-.261.068 5.18 5.18 0 01-1.078 1.439 5.3 5.3 0 01-1.827 1.027c-1.434.497-3.025.295-4.37-.356-.73-.353-1.299-.911-1.897-1.441-.542-.478-1.501-1.077-2.184-.497-.347.294-.416.778-.336 1.22.128.463.371.888.708 1.234.237.228.487.443.748.644.306.213.627.406.96.574 1.299.667 2.8 1.02 4.25 1.139.026.003.036.041.007.048a6.97 6.97 0 01-3.682-.184 15.994 15.994 0 01-1.652-.119 9.423 9.423 0 01-2.44-.666c-1.398-.592-2.561-1.642-3.13-3.05-.527-1.306-.337-2.878.632-3.927a3.109 3.109 0 011.881-.931 3.301 3.301 0 00-1.509.009c-1.069.235-1.915 1.124-2.204 2.152-.016.057-.114.047-.107-.015a3.36 3.36 0 01.65-1.647c.361-.482.846-.86 1.403-1.095.271-.111.557-.179.849-.202a3.625 3.625 0 011.871-.341 4.67 4.67 0 011.346.338c.406.152.901.286 1.141-.157a.317.317 0 01-.023-.175.338.338 0 01.071-.162.346.346 0 01.145-.102.336.336 0 01.178-.012 2.598 2.598 0 011.377.82c.36.41.579.923.626 1.465l.006.085a4.16 4.16 0 00.133-.961c.031-1.318-.788-2.564-1.854-3.29-1.186-.807-2.736-.956-4.117-.684l-.063.014a.431.431 0 01-.113.032 4.253 4.253 0 00-.111.017 8.461 8.461 0 00-1.821.68 5.734 5.734 0 00-2.049 2.279 3.647 3.647 0 011.53-1.3.033.033 0 01.026-.002.028.028 0 01.02.015.034.034 0 01.004.026.037.037 0 01-.015.02c-.762.525-1.207 1.216-1.533 1.981.2-.278.426-.538.674-.777a6.241 6.241 0 012.69-1.503 6.28 6.28 0 013.088-.036c.065.016.037.108-.027.097-1.969-.349-4.102.257-5.492 1.699a5.885 5.885 0 00-1.589 3.379 8.35 8.35 0 001.748 4.194c1.288 1.636 3.129 2.804 5.136 3.373 1.982.563 4.086.422 6.036-.189l.004-.006.026-.004a11.742 11.742 0 003.99-2.169 6.69 6.69 0 01-2.318.682c-.028.002-.032-.04-.006-.047a9.549 9.549 0 003.429-1.769 8.682 8.682 0 01-1.409.725c-2.012.813-4.392.618-6.322-.32-.051-.025-.013-.113.04-.092a8.29 8.29 0 006.049.06 7.096 7.096 0 001.708-.921 6.067 6.067 0 01-1.416.505c-.011.002-.019-.014-.008-.019 1.185-.511 2.232-1.195 3.086-2.113l.069-.09a15.65 15.65 0 001.948-5.136c.17-.901.261-1.815.274-2.732a15.759 15.759 0 01-1.199 2.391.041.041 0 01-.021.016.04.04 0 01-.026-.004.042.042 0 01-.016-.021.035.035 0 01.003-.025c.4-.727.702-1.503.9-2.307a8.201 8.201 0 01-.299.626c-.68 1.272-1.833 2.333-3.083 3.046a.029.029 0 01-.022.003c-.004-.002-.007-.003-.01-.006a.02.02 0 01-.008-.008.035.035 0 01-.004-.022.033.033 0 01.014-.019c1.27-.705 2.127-1.774 2.755-3.057.606-1.238.759-2.52.742-3.865a17.197 17.197 0 00-1.126-3.7c.178 1.096.115 2.264-.179 3.227-.011.037-.075.032-.071-.01.074-.895.12-1.74-.031-2.634a4.687 4.687 0 00-.053-.267 9.128 9.128 0 01-1.435 5.803.034.034 0 01-.024.018.039.039 0 01-.03-.004.041.041 0 01-.019-.024.044.044 0 01.003-.03c2.123-3.989 1.141-9.164-2.514-11.93a16.392 16.392 0 00-3.439-2.132 14.775 14.775 0 01-1.75 2.756zm8.344 22.441c-2.497 1.387-3.82 2.255-4.713 3.595-.31.641-.576 1.177-.546 1.882.002.043-.07.05-.075.007a5 5 0 01.072-1.677c-.346.747-.497 1.585-.333 2.392.232 1.141 1.047 2.254 2.211 2.555 1.083.28 2.43-.08 3.047-1.07.035-.055.115-.001.083.055a2.997 2.997 0 01-3.184 1.488c-1.328-.264-2.358-1.4-2.678-2.701a4.014 4.014 0 01-.106-1.171c-.007.06-.014.12-.018.182-.081 1.309.417 2.417 1.199 3.43.009.012-.004.029-.017.02-.985-.669-1.566-1.947-1.615-3.141a3.894 3.894 0 00.251 1.746c.614 1.553 2.084 2.821 3.832 2.604 1.772-.22 3.399-1.668 3.276-3.578-.056-.872-.544-1.727-1.337-2.123-.75-.375-1.762-.252-2.339.389-.536.594-.604 1.665-.008 2.251.192.187.428.323.687.395.298.048.604-.005.869-.152.432-.253.872-.854.445-1.321-.022-.025.004-.073.037-.057.561.268.684.987.295 1.476-.443.556-1.181.779-1.868.644a1.89 1.89 0 01-1.436-1.274c-.367-.807-.459-1.876 0-2.598.285-.441 1.171-1.332 1.171-1.332s.917-.999 2.467-1.331c3.776-.334 5.322 2.853 4.67 6.417-.311 1.697-2.071 3.776-3.689 4.492-.475.21-.983.338-1.5.377-1.342.331-2.798.203-3.89-.589a.03.03 0 01-.012-.018.029.029 0 01.002-.022.031.031 0 01.015-.015.04.04 0 01.022-.001c.727.238 1.47.424 2.226.461a4.04 4.04 0 01-1.178-.597c-.163-.108-.314-.227-.471-.35l-.156-.122c-.301-.231-.661-.489-1.057-.498-.975-.022-1.06 1.083-.482 1.649.524.512 1.199.568 1.877.623h.002c.174.014.349.028.521.051.097-.026.195-.055.292-.088h.005l.003.001a.018.018 0 01.007.005l.002.006v.003c0 .003 0 .005-.002.008-.563.697-1.494.85-2.35.725-.821-.119-1.566-.42-2.311-.749l-.318-.142h-.001l-.318-.142c-.977-.431-2.009-.778-3.088-.576a4.437 4.437 0 00-1.741.726c1.376.063 2.645.808 3.836 1.508l.161.095c1.183.693 2.698 1.423 4.092 1.095.217-.078.433-.157.649-.238l.024-.013.021-.01.012-.006.007-.004a.17.17 0 01.073-.02l.309-.117c.269-.103.537-.205.806-.304.033-.012.069.029.037.054l-.107.089a4.566 4.566 0 01-.171.141 8.974 8.974 0 01-2.476 1.348c.285-.039.597-.066.916-.093l.051-.005c.504-.043 1.021-.087 1.465-.175.391-.076.701-.15 1.086-.251a19.462 19.462 0 001.494-.453c1.867-.66 3.314-1.207 4.514-2.469.469-.64 1.091-1.772 1.385-2.51-.433.758-.939 1.47-1.509 2.129-.031.036-.09-.016-.063-.054.366-.501.692-1.029.978-1.58a9.05 9.05 0 01-2.466 2.243c-.024.014-.05-.024-.028-.041a10.304 10.304 0 001.888-1.947c-1.663 1.83-4.036 2.745-6.496 2.669a.035.035 0 01-.025-.012.045.045 0 01-.01-.027.042.042 0 01.012-.025.034.034 0 01.027-.009c2.444-.013 4.668-1.396 6.537-3.322.742-.687 1.246-1.315 1.625-2.471 1.711-5.226-1.054-9.28-5.403-8.435z" fill="#C9A96A"/><path d="M274.718 125.37a4.372 4.372 0 01-2.555-.328c-1.069-.486-1.856-1.418-2.069-2.56l-.042.023a.437.437 0 01-.022.012l-.012.006a.231.231 0 01.016.041c.028.104.051.206.074.308l.002.008c.051.222.102.44.194.657.132.314.344.605.552.872.007.009-.002.026-.014.018a3.05 3.05 0 01-.972-1.131c.05.163.113.322.19.475.231.457.546.903.963 1.207.021.015.002.05-.02.035-.781-.505-1.575-1.315-1.665-2.294a1.495 1.495 0 01-.334-.011 1.54 1.54 0 01-.747-.352c-.042-.035.012-.097.057-.074.673.354 1.582.045 1.982-.571a1.19 1.19 0 00.177-.463c-.032-.824-.785-1.437-1.648-1.374-1.163.084-1.789 1.207-1.943 2.243-.004.028-.047.021-.047-.006-.018-1.247.761-2.652 2.051-2.81-.181-.036-.541.058-.563.062a2.462 2.462 0 00-.346.095c-.76.267-1.247.965-1.44 1.719-.43 1.681.71 3.313 2.001 4.279 1.303.974 2.936 1.435 4.55 1.394.298-.007.629-.063.97-.15.045-.273.174-.533.413-.748.811-.729 1.857-.342 2.613.262l.049.039c.078.01.149.046.204.102.453.436 1.02.734 1.635.86 1.79.376 3.504-.638 4.351-2.211 1.918-2.703.691-7.317-2.421-7.286-1.216-.031-1.881.635-2.221 1.05.075-.018.152-.034.231-.044 1.761-.236 3.258 1.17 3.378 2.917.125 1.841-1.083 3.479-2.759 4.124a4.29 4.29 0 01-2.435.203c-.805-.168-1.268-.78-2.378-.598zm-10.349 6.356c-.095.025.092-.03 0 0a9.864 9.864 0 011.792-.193c-1.941-.308-3.65-1.452-4.87-2.988-.029-.037.022-.084.054-.049 1.058 1.17 2.44 1.956 3.928 2.408l-.092-.071-.021-.015c-.568-.193-1.131-.579-1.551-.939a5.894 5.894 0 01-1.398-1.758c-.005-.009.008-.021.016-.011a6.412 6.412 0 001.874 1.732 8.948 8.948 0 01-1.862-3.179c-1.685-.928-2.596-3.067-2.802-4.894-.008-.066.093-.091.104-.023a6.756 6.756 0 001.073 2.743c.429.644.941 1.17 1.478 1.696a9.803 9.803 0 01-.214-4.296c.008-.051.09-.049.082.004-.39 2.795.672 5.751 2.669 7.716a9.044 9.044 0 003.866 2.239 5.832 5.832 0 01-1.743-1.26c-1.201-1.272-1.857-3.144-1.371-4.874.043-.151.095-.303.147-.456l.008-.021c.121-.353.245-.712.263-1.077.017-.352-.037-.846-.369-1.054-.97-.606-1.59.83-1.721 1.551a.366.366 0 01-.047.124c.019.442.078.883.176 1.314.054.234.132.459.209.684l.007.021c.065.188.129.377.179.571a.013.013 0 01-.001.009c-.001.004-.004.005-.007.007l-.002.001-.007.001c-.003-.001-.007-.002-.009-.005-.33-.394-.578-.925-.787-1.394a5.742 5.742 0 01-.452-1.455c-.145-.939-.26-1.902-.26-2.853 0-.408.074-1.797.998-1.997.635-.152 1.232-.023 1.83.239-.253-.686-.766-1.138-1.497-1.238-.978-.135-1.563.45-1.997 1.331-.137.34-.136 1.101-.117 1.473.006.103-.157.113-.176.016-.025-.133-.063-.268-.101-.406l-.018-.062a3.633 3.633 0 01-.102-.44c0 .034-.047.034-.055.006-.274-.869-.707-1.747-.508-2.628.078-.622.078-.893.078-1.466 0-.155-.353-1.077-.889-.633-.565.47-.61 1.22-.42 1.893.098.349.241.684.383 1.018l.003.008c.166.388.331.775.428 1.186.089.33.112.675.07 1.014-.05.306-.157.524-.288.793l-.018.037c-.039.079-.163.014-.136-.066.195-.574.01-1.23-.245-1.836a10.108 10.108 0 01-.186-.014c-.302-.026-.58-.049-.874.119a1.54 1.54 0 00-.717.891c-.254.814-.108 1.727.177 2.515a6.327 6.327 0 003.166 3.489.052.052 0 01.033.065.048.048 0 01-.025.029.055.055 0 01-.04.004 5.292 5.292 0 01-1.441-.595c-1.092 1.405-.344 3.349 1.002 4.283.747.518 1.581.799 2.462.989.2.043.681-.005.881.027zm-4.716 14.565c-.621-.324-1.085-.691-1.55-1.115-.234.05-.475.064-.713.039-.657-.064-1.278-.43-1.543-1.05a1.87 1.87 0 01-.109-.345c-1.025-.259-2.122.043-2.968.65 1.182.846 1.943 2.148 2.691 3.361.436.708.906 1.434 1.534 1.994l.028.025a20.364 20.364 0 01-1.433-2.902c-.028-.068.092-.118.122-.051.387.836.853 1.633 1.393 2.38-.157-1.166-.212-1.284-.39-1.961l-.333-1.331c1 .415 2.516.896 2.516.896a10.82 10.82 0 003.688.777 12.302 12.302 0 006.837-1.898c.029-.018.064.026.037.047-1.986 1.603-4.452 2.483-7.018 2.362a11.462 11.462 0 01-3.141-.579c.413.169.836.315 1.265.439 1.388.402 2.848.5 4.281.29a.042.042 0 01.027.004.04.04 0 01.016.022.04.04 0 01-.003.026c-.005.008-.012.015-.021.017a9.864 9.864 0 01-4.463.226 9.224 9.224 0 01-.622-.136 8.979 8.979 0 003.65.377 12.82 12.82 0 006.266-2.438c1.756-1.299 3.177-3.098 3.744-5.217.426-1.593.421-3.267-.123-4.797-.09.981-.36 1.916-.642 2.878a.028.028 0 01-.014.018.03.03 0 01-.023.003.028.028 0 01-.018-.014.03.03 0 01-.003-.023c.272-1.157.22-2.385.17-3.565l-.003-.068c-.965.557-1.396 1.807-1.224 2.874a.088.088 0 01-.159.066c-.602-.808-.496-1.801-.009-2.594-1.423-2.847-3.307-3.987-6.656-3.434-.858.237-1.759.698-2.269 1.452-.479.705-.735 1.632-.409 2.45.165.415.457.676.753.992a.82.82 0 00.129.116c.26.187.818.053.818.053s-.528-.379-.717-.644a2.189 2.189 0 01-.372-.885c-.122-.735.031-1.51.602-2.038.499-.461 1.152-.763 1.843-.672.014.002.021.026.004.028-1.238.164-2.325 1.238-1.954 2.549.288 1.014 1.633 2.272 2.519 1.536.072-.06.111-.096.172-.166.032-.038.078-.101.078-.101s-.599.135-.898.067c-.3-.066-.57-.222-.778-.445-.79-.909-.185-2.256.907-2.565 1.868-.53 3.846.419 4.805 1.981a6.594 6.594 0 011.142 4.158c-.141 2.026-1.176 3.835-2.793 5.08a8.074 8.074 0 01-5.737 1.625c-1.005-.11-2.03-.355-2.929-.824zm14.65-10.515a.313.313 0 00.008-.029l.011-.039.001-.005c.147-.531.377-1.367.683-1.781.537-.732 1.196-1.257 2.017-1.587.171-.068 2.193-.496 2.193-.496.856-.285 3.664-1.371 4.465-1.834-2.33 3.662-5.186 4.25-6.658 4.328-1.472.077-2.628 1.196-2.72 1.443z" fill="#C9A96A"/><path d="M261.247 143.686a5.061 5.061 0 01-1.524.212c-.17.334-.412.628-.71.858l-.598.33a2.54 2.54 0 01-.14.046c.565.314 1.221.522 2.076.619 1.68.19 3.017-.334 4.13-1.298 1.094-.947 1.813-2.39 1.462-3.844-.314-1.3-1.452-2.415-2.872-2.378a2.784 2.784 0 00-1.712.679c.595-.408 1.368-.558 2.063-.305.469.179.879.48 1.187.871.309.392.504.859.566 1.353a3.237 3.237 0 01-.189 1.503 3.292 3.292 0 01-.852 1.262c-.879.805-2.069 1.109-3.241 1.048a.04.04 0 01-.03-.014.045.045 0 010-.061.046.046 0 01.031-.013c1.711-.179 3.783-1.403 3.68-3.36-.045-.824-.484-1.658-1.275-1.996a2.114 2.114 0 00-1.01-.157c1.191.189 2.026 1.368 1.703 2.554-.325 1.196-1.575 1.844-2.745 2.091zm-1.662-59.166c1.205.407 1.948.82 3.177 2.202-.078-.492.06-1.06.261-1.458.348-.69.94-1.245 1.708-1.427a3.602 3.602 0 012.744.458 31.227 31.227 0 01-.484-1.069c-.021-.05.053-.084.083-.042.369.534.72 1.075 1.061 1.627l.024.023a5.104 5.104 0 00-1.661-3.087c-.011-.01.001-.031.014-.023a4.572 4.572 0 012.079 2.84 9.387 9.387 0 00-.009-1.186c0-.004.001-.008.004-.011a.018.018 0 01.01-.007c.004 0 .008 0 .012.002s.006.006.008.01a4.01 4.01 0 01.22 2.354 5.86 5.86 0 01.33 4.94s-.428 3.695-1.524 4.73c-.185.175-.377.346-.575.512a14.256 14.256 0 003.067-2.734 15.195 15.195 0 001.54-2.233c.406-.724.697-1.503 1.091-2.229a.024.024 0 01.013-.01.022.022 0 01.016-.001.02.02 0 01.012.01c.004.005.004.01.004.016-.145.848-.57 1.687-.983 2.433a14.363 14.363 0 01-1.484 2.192 16.193 16.193 0 01-1.713 1.785 14.727 14.727 0 004.304-4.478.217.217 0 01.036-.105c2.442-3.695 1.684-8.757-1.521-11.746a.043.043 0 01-.013-.027.04.04 0 01.036-.041.04.04 0 01.028.008 8.938 8.938 0 013.158 4.874 5.937 5.937 0 00-.037-.263c-.148-.867-.46-1.628-.813-2.427-.017-.037.04-.063.062-.032.575.792 1.004 1.844 1.192 2.907a16.722 16.722 0 00-.157-3.754c-.413-1.24-.962-2.368-1.908-3.312-.982-.98-2.103-1.69-3.483-1.935a.032.032 0 01-.018-.013.032.032 0 01-.004-.021.032.032 0 01.012-.018.03.03 0 01.021-.006c1.365.26 2.753.87 3.777 1.82.163.152.32.313.473.481a9.295 9.295 0 00-1.556-1.832.032.032 0 01-.01-.023.03.03 0 01.008-.024.03.03 0 01.022-.011.03.03 0 01.023.007 15.288 15.288 0 011.855 1.816 15.523 15.523 0 00-1.122-2.421 15.27 15.27 0 00-3.411-4.098 4.2 4.2 0 00-.092-.062c-1.07-.571-2.241-.868-3.482-.963-.012 0-.009-.018.001-.02a5.82 5.82 0 011.45.016 6.812 6.812 0 00-1.848-.305 7.923 7.923 0 00-5.485 1.969c-.042.037-.103-.033-.065-.072 1.456-1.471 3.559-2.403 5.649-2.294.51.027 1.017.1 1.514.22a9.156 9.156 0 00-3.685-.538c-.025.001-.036-.04-.009-.046a6.39 6.39 0 012.326-.108 11.288 11.288 0 00-3.788-.73c-2.155-.038-4.337.486-6.117 1.739-1.644 1.157-2.946 2.811-3.595 4.721a8.153 8.153 0 00-.253 4.403 5.742 5.742 0 002.525 2.599c1.726.883 3.859.765 5.54-.178.053-.03.108.045.055.08a5.997 5.997 0 01-5.749.415 5.661 5.661 0 01-.862-.499c.542.6 1.168 1.092 2.028 1.333a.034.034 0 01.021.014.035.035 0 01.004.025.032.032 0 01-.037.026 3.513 3.513 0 01-1.808-.71 5.552 5.552 0 002.593 1.445 8.15 8.15 0 001.873.048c.036-.007.071-.012.107-.02a.41.41 0 01.113-.006l.061-.007c1.344-.187 2.706-.815 3.527-1.93.739-1.005 1.087-2.407.637-3.607a4.077 4.077 0 00-.428-.84l.022.08a2.502 2.502 0 01-1.093 2.731.32.32 0 01-.447-.13.324.324 0 01-.034-.167c-.36-.33-.767-.052-1.089.217a4.48 4.48 0 01-1.116.736 3.474 3.474 0 01-1.812.28c-.272.07-.555.099-.836.083a3.284 3.284 0 01-2.743-1.868c-.027-.055.059-.094.092-.047.591.851 1.645 1.4 2.692 1.277.489-.047.96-.207 1.376-.468-.679.15-1.39.058-2.008-.26-1.217-.656-1.892-2.039-1.829-3.405.068-1.473.791-2.804 1.873-3.79a9.056 9.056 0 012.007-1.383c.477-.236.967-.447 1.466-.632a6.653 6.653 0 013.291-1.334c.028-.003.033.035.01.046-1.282.568-2.535 1.368-3.504 2.39a7.67 7.67 0 00-.69.831 8.743 8.743 0 00-.475.828 2.782 2.782 0 00-.25 1.357c.068.43.285.853.694 1.013.807.317 1.489-.536 1.829-1.148.375-.674.715-1.366 1.266-1.921 1.016-1.024 2.4-1.713 3.863-1.71a5.098 5.098 0 011.99.364 5.02 5.02 0 011.44.98c.085-.013.172-.02.259-.02 1.028.001 2.123.446 2.915 1.093a.04.04 0 01.014.026.043.043 0 01-.007.03.039.039 0 01-.023.017.044.044 0 01-.03-.002c-.747-.33-1.562-.63-2.394-.613-.618.013-1.335.2-1.551.776a4.81 4.81 0 01.777-.063c.119-.007.237-.012.354-.015a.318.318 0 01.182.046c1.179.137 2.115.727 2.923 1.61a.065.065 0 01.022.047.069.069 0 01-.017.05.068.068 0 01-.046.023.07.07 0 01-.05-.014c-1.773-1.378-4.317-1.308-6.181-.18-.043.034-.087.07-.129.108-.582.522-.943 1.413-.625 2.12.161-.33.446-.583.793-.705.687-.228 1.244-.003 1.782.435.356.29.687.427 1.153.35.33-.054.655-.15.986-.195.285-.046.577-.037.859.027h.017c1.089-.02 2.304.593 2.665 1.675.014.041-.04.085-.075.05-.389-.39-.823-.746-1.331-.937a6.268 6.268 0 00-1.284-.004.35.35 0 01-.181.037.88.88 0 00-.145.007l-.019.003c-.658.104-.502 1.03-.161 1.446.444.542 1.087.867 1.59 1.347.931.89 1.642 2.047 1.913 3.315.494 2.32-.259 4.753-2.288 6.09a.047.047 0 01-.031.006.053.053 0 01-.028-.015.044.044 0 01-.011-.03.046.046 0 01.008-.03 7.48 7.48 0 001.637-3.382 3.285 3.285 0 00-.584-1.442c-.18.381-.502.703-.822 1-.528.49-1.026 1.219-.868 1.988.01.052-.054.096-.09.045-.376-.545-.506-1.13-.238-1.716a.376.376 0 01.006-.082 4.784 4.784 0 00-1.264-4.139c-.917-.954-2.077-1.575-3.331-1.95.011.525-.128 1.03-.212 1.574-.103.678-.111 1.56.727 1.736a.03.03 0 01.019.013.03.03 0 01.007.022.04.04 0 01-.009.02.037.037 0 01-.022.01c-.441.084-.914-.205-1.166-.595-.357.03-.678-.177-1.118-.15-.632.04-1.526.549-1.526.549s-1.782.867-2.456 1.577z" fill="#C9A96A"/><path d="M264.407 84.855a2.12 2.12 0 00-.648.617c-.314.477-.299.909-.282 1.412 0 0 0 .108.032.185 1.124-.22 2.426.045 3.323.78-.288-.868-.794-1.6-1.699-2.043-.043-.022-.011-.083.033-.067.955.34 1.887 1.144 2.237 2.135a2.961 2.961 0 00-.302-1.545.063.063 0 01-.008-.045.06.06 0 01.108-.024c.537.742.762 1.677.477 2.554.348.537.604 1.169.652 1.794l.017-.04c.499-1.278.558-2.73-.008-3.998-.535-1.196-1.697-2.206-3.088-2.01a2.12 2.12 0 00-.844.295z" fill="#C9A96A"/><path fill-rule="evenodd" clip-rule="evenodd" d="M266.161 131.533l.061.009.038.006a10.19 10.19 0 001.632.739c.109.038.22.073.331.106l1.607.097c-1.031-.638-2.257-.974-3.669-.957zm.478 5.194l.001-.001.001-.006-.002.007z" fill="#C9A96A"/><path fill-rule="evenodd" clip-rule="evenodd" d="M269.83 132.49c-1.031-.638-2.257-.974-3.669-.957l.061.009.038.006a10.19 10.19 0 001.632.739c.109.038.22.073.331.106l1.607.097zm.264-10.008l-.042.023a.437.437 0 01-.022.012l.064-.035zm-4.125-22.452a3.334 3.334 0 00.047.683c-.118.032.118-.026 0 0l-.047-.683c.096-.027-.097.03 0 0zm-2.053-11.464a.033.033 0 01.012-.007l.017.051-.017-.005a.025.025 0 01-.014-.009v-.001a.025.025 0 01-.004-.015.02.02 0 01.006-.014zm5.25 2.1a5.39 5.39 0 01-.199.448 3.58 3.58 0 01.199-.448z" fill="#C9A96A"/><path d="M273.114 94.124c.167.624.196.755.037 1.395.579.756.677 1.74.404 2.643a.065.065 0 01-.077.041.062.062 0 01-.037-.028.057.057 0 01-.007-.046c.07-.546-.01-1.1-.231-1.604-.006 1.082-.645 2.179-1.466 2.831-.038.03-.09-.017-.055-.053.736-.736.983-1.62.969-2.56-.63 1.017-1.779 1.71-2.956 1.877l-.064.007c.186.576.289 1.063.818 1.464a2.21 2.21 0 001.774.383c1.43-.28 2.226-1.655 2.342-2.998.123-1.423-.527-2.28-1.451-3.352z" fill="#C9A96A"/><path d="M269.856 97.761a3.448 3.448 0 002.232-1.716c.551-.794.336-2.292-.427-2.366a15.523 15.523 0 01-4.636 3.308c.661.725 1.92.977 2.831.774zm-24.829 47.912c-.308.162-1.842.978-1.842.978-2.59.848-4.064 1.259-6.947 1.193v1.396l1.069 1.357.01-.015c.395.812.778 1.529 1.619 1.983.632.341 1.28.406 1.965.378-.312-.351-.611-.714-.922-1.064-.404-.456-.9-.803-1.351-1.21-.019-.017.002-.05.026-.037.517.274.965.667 1.434 1.008.375.267.724.567 1.044.895a4.149 4.149 0 00-.176-.685 3.896 3.896 0 00-.681-1.131c-.512-.616-1.227-1.038-1.939-1.408-.033-.016-.026-.071.015-.071.92.004 1.771.46 2.385 1.092l.015.019c.835.624 1.816.943 2.886.828a3.69 3.69 0 001.972-.861 5.262 5.262 0 01-1.607-.143 3.995 3.995 0 01-1.193-.499c-.345-.22-.564-.536-.805-.85-.015-.021.012-.052.035-.038.312.185.675.293 1.015.422.269.102.478.225.806.288 1.429.276 2.16-1.331 3.22-1.875.463-.237.999-.376 1.516-.304-.604-.502-1.541-.357-2.315-.036-1.093.453-2.037 1.254-3.291 1.192-.003 0-.005 0-.007-.002s-.004-.005-.004-.008l.002-.007.007-.004c1.496-.203 2.485-1.49 3.911-1.877.678-.184 1.6-.052 2.135.432a2.448 2.448 0 00-.882-.889c-.94-.553-2.197-.932-3.125-.447zm-83.928-60.627l25.287 30.706 1.335-1.179-25.623-30.366-.999.839zm-3.779-1.787l3.568 1.964 1.506-1.265-1.317-3.854-7.281-4.855 3.524 8.01zm70.136 89.462l1.325.993 6.839-6.98 1.162-1.186 14.396-14.693-1.34-.893-14.258 14.336-1.155 1.198-6.969 7.225z" fill="#C9A96A"/><path d="M220.611 151.192l13.814 14.304 1.155-1.198-13.571-14.1-1.398.994zm21.75 22.522l1.325-.993-6.904-7.173-1.162 1.186 6.741 6.98z" fill="#C9A96A"/><path fill-rule="evenodd" clip-rule="evenodd" d="M223.331 114.661c1.649-.267 2.442-.603 3.524-1.673 7.299 5.71 11.308 5.57 18.322 0 1.133 1.113 1.918 1.455 3.523 1.673-2.952 3.834-1.8 7.767-.156 13.383.279.951.572 1.951.861 3.007-1.535 1.462-2.203 2.191-3.171 5.352l-1.409-.67c-1.813-1.454-2.182-.125-3.081 1.509l-.09.164c-.887 1.034-1.55 1.432-3.171 1.672-1.083-.077-1.627.059-2.467.669-.948-.607-1.569-.745-2.819-.669-1.475-.351-2.088-.721-2.819-1.672-.956-2.481-1.37-3.27-3.171-1.673l-1.762.67c-.482-2.37-1.03-3.07-2.618-5.097l-.2-.255c2.989-9.031 3.941-13.393.704-16.39zm10.571 4.013h3.876v6.021h4.753v3.679h-4.753v9.032h-3.876v-3.127l-1.762.669v-3.563l1.762-1.004v-2.007h-4.581v-3.679h4.581v-6.021z" fill="#C9A96A"/><path d="M235.392 120.368h.877v15.15h-.877v-15.15zm0 5.606h-4.316v1.125h4.316v-1.125zm.877 0v1.125h4.589v-1.125h-4.589zm-.877 5.164l-1.754.897v.898l1.754-.898v-.897zm-80.443-23.263l.077.194.209.014 4.478.295-3.438 2.915-.158.134.051.2 1.126 4.42-3.855-2.437-.177-.112-.177.112-3.855 2.437 1.126-4.42.051-.2-.157-.134-3.434-2.915 4.474-.295.208-.014.078-.194 1.686-4.237 1.687 4.237zm165.837 0l.076.194.209.014 4.479.295-3.439 2.915-.158.134.051.2 1.127 4.42-3.855-2.437-.177-.112-.178.112-3.854 2.437 1.126-4.42.051-.2-.158-.134-3.433-2.915 4.473-.295.209-.014.077-.194 1.687-4.237 1.687 4.237zm-150.652 21.86l.077.194.209.014 4.478.295-3.438 2.915-.158.134.051.2 1.126 4.42-3.855-2.437-.177-.112-.177.112-3.854 2.437 1.125-4.42.051-.2-.157-.133-3.434-2.916 4.474-.295.208-.014.078-.194 1.686-4.236 1.687 4.236zm135.466 0l.077.194.209.014 4.479.295-3.439 2.915-.158.134.051.2 1.126 4.42-3.854-2.437-.177-.112-.178.112-3.854 2.437 1.126-4.42.051-.2-.158-.133-3.433-2.916 4.473-.295.209-.014.077-.194 1.687-4.236 1.686 4.236zm-86.701-42.517c-.495-.077-1.312-.368-2.168-.719-1.615-.662-3.37-1.535-3.375-1.587-1.633.434-2.522 1.152-3.339 2.185-.388.491-.71.931-.934 1.395a3.36 3.36 0 00-.336 1.227 4.834 4.834 0 012.357-1.155c.093-.019.115.117.028.142a4.259 4.259 0 00-1.828 1.093c.99-.28 2.182-.022 3.163.192l.264.056c1.765.375 3.453.32 5.21-.023.636-.123 1.211-.275 1.775-.423 1.032-.271 2.025-.532 3.277-.597a9.739 9.739 0 00-.556-.11 21.104 21.104 0 00-1.932-.223c-1.332-.098-2.004-.07-3.327.084a.03.03 0 01-.021-.006.033.033 0 01-.012-.018.03.03 0 01.004-.02.028.028 0 01.018-.013l.03-.007c1.301-.306 1.987-.467 3.336-.48.156 0 .312 0 .468.004a24.814 24.814 0 00-2.074-.386l-.164-.023c-.133-.02-.259-.037-.379-.054-.853-.12-1.399-.18-2.411-.181-.617.001-1.228.003-1.843.059-.164.015-.33.035-.495.056-.37.045-.742.09-1.111.079a.042.042 0 01-.024-.01.037.037 0 01-.013-.024.04.04 0 01.022-.044c.488-.19 1.037-.255 1.562-.316l.152-.017.166-.02a27.842 27.842 0 011.702-.168c1.157-.068 1.652-.05 2.808.052zm3.572 60.432c-.998-1.665-1.506-2.614-2.763-3.605-.933-.713-2.126-.967-3.233-.615v-.087a.164.164 0 00.044-.004 8.52 8.52 0 00.306-.08c.222-.061.441-.12.679-.143.339-.031.696.019 1.029.076.012.002.022-.014.009-.021a3.053 3.053 0 00-1.456-.322c.167-.034.337-.053.509-.057.511-.012 1.053.055 1.519.278.023.012.044-.021.021-.033-.814-.451-1.903-.768-2.809-.385a1.509 1.509 0 00-.167-.289 1.535 1.535 0 00-.663-.492c-.051-.021-.08.057-.038.085.629.426.786 1.373.433 2.017a1.207 1.207 0 01-.325.375c-.741.36-1.638-.014-1.99-.805-.474-1.064.219-2.147 1.06-2.771.022-.017-.005-.051-.029-.039-1.144.593-1.873 1.9-1.304 3.15.111.237.28.443.492.599-.567-.275-.89-.868-.986-1.489-.123-.796.262-1.555.835-2.081 1.279-1.174 3.256-.939 4.717-.257 1.474.687 2.651 1.909 3.378 3.351.727 1.442.846 2.033.732 3.644zm-16.514-48.875a4.37 4.37 0 002.277-.367c1.069-.485 1.856-1.417 2.069-2.56.025.015.05.03.076.042a.194.194 0 00-.016.041 5.774 5.774 0 00-.073.302l-.002.006-.002.01c-.051.221-.101.439-.192.656-.133.313-.345.604-.553.87-.008.01.002.026.013.019.414-.291.748-.68.973-1.132a3.02 3.02 0 01-.19.476c-.231.457-.546.903-.963 1.207-.021.015-.002.05.019.035.782-.505 1.576-1.314 1.666-2.294.111.009.224.005.334-.011.276-.047.534-.169.746-.352.043-.035-.012-.098-.057-.074-.672.353-1.581.045-1.982-.571a1.187 1.187 0 01-.176-.463c.032-.824.785-1.437 1.649-1.374 1.162.084 1.788 1.207 1.941 2.243.004.028.048.02.049-.006.018-1.29-.791-2.55-2.161-2.638a1.57 1.57 0 00-.761.15c.511-.37 1.186-.374 1.778-.165.761.267 1.248.965 1.441 1.718.43 1.683-.711 3.314-2.001 4.28-1.302.974-2.936 1.434-4.55 1.394a4.753 4.753 0 01-1.111-.187 4.034 4.034 0 00-.241-1.255zm10.278-13.167c-1.805-.8-3.056-1.588-3.704-2.072.522.149.749.142 1.606.251.625.073 1.254.232 2.098.307.723.065 1.281.034 1.907 0 1.172-.062 2.245-.643 2.859-1.628l.057.066a.17.17 0 00-.03.032c-.064.086-.123.173-.182.259-.13.19-.257.378-.424.549-.237.243-.542.437-.833.61-.01.006-.007.025.007.022.491-.12.944-.361 1.318-.7a3.203 3.203 0 01-.351.374c-.381.341-.837.642-1.337.773-.024.007-.02.045.006.04.912-.186 1.946-.65 2.387-1.529.101.049.206.086.315.111.275.058.56.038.824-.055.052-.018.024-.095-.027-.09-.754.085-1.489-.534-1.637-1.254a1.183 1.183 0 01.005-.496c.33-.755 1.255-1.051 2.036-.678 1.052.503 1.225 1.776.99 2.797-.006.027.037.037.047.011.487-1.193.194-2.661-1.049-3.244a1.573 1.573 0 00-.764-.136c.61-.16 1.241.084 1.717.493.61.527.809 1.354.714 2.126-.213 1.723-1.87 2.826-3.424 3.255-1.568.432-3.256.544-4.744-.082a2.393 2.393 0 00-.387-.112zm-19.938-1.401a16.263 16.263 0 001.197 4.896c-.409.18-.809.377-1.2.59a15.248 15.248 0 00-3.373 2.49c-.802-.112-1.533-.311-2.197-.902-.617-.549-.943-1.225-1.181-1.976.255.101.512.197.769.294.249.093.498.186.744.284.427.169.819.399 1.212.63.207.12.415.243.628.356.026.014.053-.022.03-.044-.357-.322-.765-.582-1.171-.84a20.457 20.457 0 01-.483-.314c-.437-.3-.899-.56-1.379-.777.267-.05.537-.076.809-.079.507.011 1.012.11 1.491.292.869.311 1.607.919 2.287 1.544.03.028.087 0 .071-.045-.367-.994-1.194-1.734-2.119-2.15-.002 0-.004 0-.006-.002l-.004-.001-.006-.003-.011-.004c-1.003-.656-1.734-1.593-2.03-2.795a4.248 4.248 0 01.154-2.471c.175.598.441 1.166.787 1.681.277.42.618.79 1.01 1.095.333.256.71.373 1.096.492l.14.043c.028.01.051-.032.027-.052-.248-.203-.459-.457-.668-.708-.063-.075-.125-.15-.189-.224a13.093 13.093 0 01-.628-.759c-.287-.87.032-1.794.345-2.7.178-.516.354-1.026.417-1.52.074-.593.014-1.228-.267-1.759.779.455.991 1.526.949 2.49-.018.4-.073.797-.128 1.193-.132.952-.263 1.895.133 2.836l.002.004.004.003a.013.013 0 00.009 0h.001c.003 0 .004-.002.006-.005.001-.003.002-.006.001-.009-.2-.924.005-1.812.212-2.702.172-.746.345-1.494.28-2.266-.067-.806-.573-1.75-1.306-2.14.476.083.928.29 1.308.605.968.799 1.872 2.009 1.712 3.203.016.989.209 1.46.388 1.9.044.109.088.215.127.326zm3.312 8.456c-.961.375-2.032 1.355-2.651 2.86-.335.815-.28 1.738-.131 2.606a4.097 4.097 0 00-.588 2.362c.001.005.002.009.005.012a.02.02 0 00.006.004l.002.001h.003a.02.02 0 00.013-.002c.003-.002.005-.006.007-.01.107-.393.239-.778.396-1.155a4.682 4.682 0 001.069 3.462c.011.013.029-.003.022-.017a5.214 5.214 0 01-.575-3.561l.015.03c.145.651.306 1.296.486 1.939.014.052.1.043.095-.013a32.097 32.097 0 00-.11-1.202 3.732 3.732 0 002.534 1.373c.815.082 1.586-.257 2.162-.81.459-.439.909-1.23.743-1.887.296-.008.591-.051.877-.13.217.827.239 1.593-.194 2.38-.393.714-1.14 1.206-1.934 1.364-.042.009-.022.068.017.062 1.811-.248 3.249-2.168 2.497-3.933a3.4 3.4 0 00.387-.184c.184.268.339.553.463.853.148.416.216.856.2 1.296-.02.848-.452 1.608-1.059 2.181-.622.588-1.47.86-2.317.844a3.915 3.915 0 01-1.192-.241c-.357-.122-.684-.432-1.045-.522-.114-.465-.48-.906-.941-.975h-.009a.04.04 0 00-.015.003.037.037 0 00-.016.017.033.033 0 00-.001.024.034.034 0 00.014.019c.762.454.453 1.309.121 1.933-.267.5-.576.944-.744 1.458-1.102-.788-2.027-1.784-2.602-3.021a4.89 4.89 0 01.172-4.45.384.384 0 00.035-.077c.463-.479.534-1.092.351-1.749-.017-.061-.096-.04-.104.014-.106.801-.843 1.34-1.528 1.638-.415.181-.841.385-1.148.694a3.357 3.357 0 01-.08-1.599 7.733 7.733 0 012.758-2.734.049.049 0 00.019-.026.051.051 0 00-.002-.032.054.054 0 00-.023-.024.048.048 0 00-.032-.005c-2.444.614-4.013 2.724-4.319 5.146-.168 1.324.135 2.689.746 3.868.329.636.848 1.17 1.098 1.847.193.52.03 1.472-.651 1.35-.007 0-.013-.002-.019-.003a.896.896 0 01-.145-.043c-.06-.025-.125-.033-.19-.025a6.508 6.508 0 01-1.258-.437c-.433-.358-.737-.85-.985-1.362-.022-.045-.09-.021-.09.024-.016 1.174.967 2.18 2.041 2.53l.017.005c.255.157.538.265.833.316.34.069.691.085 1.033.144.485.083.762.327 1.012.73.378.607.847 1.014 1.599 1.025a1.455 1.455 0 001.018-.418c.07.795-.587 1.54-1.336 1.85a2.74 2.74 0 01-.164.062c-2.212.466-4.73-.326-5.998-2.265a.07.07 0 00-.045-.031.075.075 0 00-.053.008.078.078 0 00-.034.042.07.07 0 00.006.053c.491 1.132 1.208 2.022 2.317 2.553a.325.325 0 00.163.106c.116.037.234.072.352.105.255.088.518.156.784.201-.41.489-1.176.427-1.785.231-.823-.266-1.519-.831-2.139-1.405a.045.045 0 00-.029-.012.048.048 0 00-.03.009.044.044 0 00-.016.026c-.002.01 0 .021.004.031.558.896 1.479 1.698 2.487 2.047.086.029.172.052.261.068a5.18 5.18 0 001.078 1.439 5.3 5.3 0 001.827 1.027c1.433.497 3.025.295 4.37-.356.729-.353 1.299-.911 1.897-1.441.542-.478 1.501-1.077 2.184-.497.347.294.415.778.335 1.22a2.85 2.85 0 01-.707 1.234 8.852 8.852 0 01-.749.644 7.804 7.804 0 01-.96.574c-1.298.667-2.799 1.02-4.25 1.139-.026.003-.035.041-.006.048a6.97 6.97 0 003.682-.184 15.994 15.994 0 001.652-.119 9.423 9.423 0 002.44-.666c1.398-.592 2.561-1.642 3.13-3.05.527-1.306.336-2.878-.633-3.927a3.104 3.104 0 00-1.88-.931 3.301 3.301 0 011.509.009c1.069.235 1.915 1.124 2.204 2.152.015.057.113.047.107-.015a3.361 3.361 0 00-.651-1.647 3.401 3.401 0 00-1.403-1.095 2.81 2.81 0 00-.848-.202 3.627 3.627 0 00-1.872-.341 4.663 4.663 0 00-1.345.338c-.407.152-.902.286-1.141-.157a.327.327 0 00-.048-.337.346.346 0 00-.145-.102.337.337 0 00-.178-.012 2.598 2.598 0 00-1.377.82c-.36.41-.579.923-.626 1.465l-.006.085a4.16 4.16 0 01-.133-.961c-.032-1.318.788-2.564 1.854-3.29 1.185-.807 2.735-.956 4.117-.684l.062.014a.45.45 0 00.114.032l.11.017a8.422 8.422 0 011.821.68 5.736 5.736 0 012.05 2.279 3.647 3.647 0 00-1.53-1.3.034.034 0 00-.026-.002c-.009.001-.016.007-.021.015a.04.04 0 00-.004.026.035.035 0 00.016.02c.761.525 1.207 1.216 1.533 1.981a5.787 5.787 0 00-.674-.777 6.247 6.247 0 00-2.69-1.503 6.285 6.285 0 00-3.089-.036c-.064.016-.036.108.028.097 1.969-.349 4.101.257 5.492 1.699a5.885 5.885 0 011.589 3.379 8.358 8.358 0 01-1.748 4.194c-1.289 1.636-3.129 2.804-5.136 3.373-1.982.563-4.087.422-6.036-.189l-.004-.006-.026-.004a11.742 11.742 0 01-3.99-2.169 6.684 6.684 0 002.318.682c.028.002.031-.04.006-.047a9.549 9.549 0 01-3.429-1.769c.446.284.918.527 1.409.725 2.012.813 4.392.618 6.321-.32.051-.025.014-.113-.039-.092a8.292 8.292 0 01-6.05.06 7.108 7.108 0 01-1.707-.921c.448.226.924.396 1.416.505.01.002.018-.014.008-.019-1.185-.511-2.232-1.195-3.086-2.113a1.953 1.953 0 01-.069-.09 15.65 15.65 0 01-1.948-5.136 15.854 15.854 0 01-.274-2.732c.33.829.732 1.629 1.199 2.391.004.008.012.013.021.016a.04.04 0 00.026-.004.042.042 0 00.016-.021.03.03 0 00-.004-.025 9.537 9.537 0 01-.9-2.307c.092.215.192.425.3.626.679 1.272 1.833 2.333 3.083 3.046a.029.029 0 00.022.003c.004-.002.007-.003.01-.006a.03.03 0 00.008-.008.029.029 0 00.003-.022.031.031 0 00-.013-.019c-1.27-.705-2.127-1.774-2.755-3.057-.606-1.238-.759-2.52-.742-3.865a17.197 17.197 0 011.126-3.7c-.178 1.096-.116 2.264.178 3.227.012.037.075.032.072-.01-.074-.895-.12-1.74.03-2.634.016-.09.034-.18.053-.267a9.134 9.134 0 001.435 5.803c.006.01.015.016.025.018a.04.04 0 00.03-.004.041.041 0 00.019-.024.045.045 0 00-.004-.03c-2.123-3.989-1.14-9.164 2.514-11.93a16.373 16.373 0 013.44-2.132 14.8 14.8 0 001.75 2.756zm-8.345 22.441c2.498 1.387 3.82 2.255 4.714 3.595.309.641.576 1.177.546 1.882-.002.043.07.05.075.007a5 5 0 00-.072-1.677c.346.747.497 1.585.333 2.392-.233 1.141-1.047 2.254-2.211 2.555-1.083.28-2.43-.08-3.048-1.07-.034-.055-.114-.001-.082.055a3 3 0 003.183 1.488c1.329-.264 2.358-1.4 2.678-2.701a3.98 3.98 0 00.107-1.171c.007.06.013.12.017.182.082 1.309-.416 2.417-1.199 3.43-.008.012.004.029.018.02.985-.669 1.566-1.947 1.615-3.141a3.881 3.881 0 01-.252 1.746c-.613 1.553-2.083 2.821-3.832 2.604-1.771-.22-3.398-1.668-3.275-3.578.055-.872.544-1.727 1.336-2.123.751-.375 1.763-.252 2.34.389.535.594.604 1.665.008 2.251a1.604 1.604 0 01-.687.395 1.352 1.352 0 01-.87-.152c-.432-.253-.871-.854-.444-1.321.022-.025-.004-.073-.037-.057-.561.268-.684.987-.295 1.476.443.556 1.181.779 1.867.644a1.893 1.893 0 001.437-1.274c.367-.807.459-1.876 0-2.598-.285-.441-1.172-1.332-1.172-1.332s-.916-.999-2.466-1.331c-3.776-.334-5.322 2.853-4.67 6.417.311 1.697 2.071 3.776 3.689 4.492.475.21.982.338 1.5.377 1.341.331 2.797.203 3.89-.589a.03.03 0 00.012-.018.029.029 0 00-.002-.022.031.031 0 00-.015-.015.041.041 0 00-.022-.001c-.727.238-1.47.424-2.226.461.422-.133.82-.335 1.178-.597.162-.108.314-.227.471-.35l.156-.122c.301-.231.661-.489 1.057-.498.974-.022 1.06 1.083.482 1.649-.524.512-1.199.568-1.877.623h-.002c-.174.014-.349.028-.521.051a4.436 4.436 0 01-.292-.088h-.005l-.003.001a.018.018 0 00-.007.005l-.002.006-.001.003c0 .003.001.005.003.008.562.697 1.494.85 2.35.725.82-.119 1.566-.42 2.311-.749l.318-.142h.001l.317-.142c.978-.431 2.01-.778 3.089-.576a4.433 4.433 0 011.74.726c-1.375.063-2.644.808-3.835 1.508l-.162.095c-1.183.693-2.697 1.423-4.091 1.095a50.392 50.392 0 01-.649-.238l-.024-.013-.022-.01-.011-.006-.007-.004a.174.174 0 00-.073-.02l-.309-.117a72.97 72.97 0 00-.806-.304c-.033-.012-.069.029-.038.054l.108.089c.056.048.113.096.171.141a8.96 8.96 0 002.476 1.348 18.294 18.294 0 00-.917-.093l-.05-.005c-.505-.043-1.021-.087-1.465-.175-.391-.076-.702-.15-1.086-.251a19.462 19.462 0 01-1.494-.453c-1.867-.66-3.314-1.207-4.515-2.469-.468-.64-1.09-1.772-1.384-2.51.433.758.939 1.47 1.509 2.129.031.036.09-.016.063-.054a12.218 12.218 0 01-.978-1.58 9.05 9.05 0 002.466 2.243c.023.014.05-.024.027-.041a10.298 10.298 0 01-1.887-1.947c1.663 1.83 4.036 2.745 6.496 2.669a.037.037 0 00.025-.012.044.044 0 00.009-.027.033.033 0 00-.012-.025.031.031 0 00-.026-.009c-2.444-.013-4.668-1.396-6.537-3.322-.742-.687-1.247-1.315-1.625-2.471-1.711-5.226 1.054-9.28 5.402-8.435z" fill="#C9A96A"/><path d="M197.449 125.37a4.372 4.372 0 002.555-.328c1.069-.486 1.856-1.418 2.069-2.56l.041.023.023.012.012.006a.231.231 0 00-.016.041c-.028.104-.051.206-.075.308l-.002.008c-.051.222-.101.44-.193.657-.132.314-.344.605-.552.872-.008.009.002.026.013.018.414-.291.748-.68.973-1.131-.05.163-.113.322-.19.475-.231.457-.546.903-.963 1.207-.021.015-.002.05.02.035.78-.505 1.575-1.315 1.665-2.294.111.009.223.005.334-.011.276-.047.534-.169.746-.352.043-.035-.012-.097-.057-.074-.672.354-1.581.045-1.982-.571a1.187 1.187 0 01-.176-.463c.032-.824.785-1.437 1.648-1.374 1.163.084 1.789 1.207 1.942 2.243.004.028.048.021.048-.006.017-1.247-.761-2.652-2.052-2.81.182-.036.541.058.564.062.117.023.233.055.345.095.761.267 1.248.965 1.441 1.719.43 1.681-.711 3.313-2.001 4.279-1.303.974-2.936 1.435-4.55 1.394a4.427 4.427 0 01-.97-.15 1.27 1.27 0 00-.413-.748c-.811-.729-1.858-.342-2.613.262l-.05.039a.35.35 0 00-.204.102 3.32 3.32 0 01-1.634.86c-1.79.376-3.505-.638-4.351-2.211-1.918-2.703-.691-7.317 2.42-7.286 1.217-.031 1.882.635 2.222 1.05a2.143 2.143 0 00-.231-.044c-1.761-.236-3.259 1.17-3.378 2.917-.125 1.841 1.083 3.479 2.759 4.124a4.29 4.29 0 002.435.203c.804-.168 1.267-.78 2.378-.598zm10.349 6.356c.095.025-.092-.03 0 0a9.866 9.866 0 00-1.793-.193c1.941-.308 3.65-1.452 4.87-2.988.03-.037-.021-.084-.053-.049-1.058 1.17-2.441 1.956-3.928 2.408l.092-.071.021-.015c.568-.193 1.131-.579 1.551-.939a5.894 5.894 0 001.398-1.758c.005-.009-.009-.021-.016-.011a6.428 6.428 0 01-1.874 1.732 8.931 8.931 0 001.861-3.179c1.686-.928 2.596-3.067 2.802-4.894.008-.066-.092-.091-.103-.023a6.758 6.758 0 01-1.074 2.743c-.428.644-.94 1.17-1.477 1.696a9.818 9.818 0 00.214-4.296c-.008-.051-.09-.049-.082.004.39 2.795-.672 5.751-2.67 7.716a9.033 9.033 0 01-3.865 2.239 5.828 5.828 0 001.742-1.26c1.201-1.272 1.858-3.144 1.372-4.874a8.615 8.615 0 00-.148-.456l-.007-.021c-.122-.353-.246-.712-.263-1.077-.018-.352.037-.846.369-1.054.97-.606 1.59.83 1.721 1.551a.329.329 0 00.047.124 7.272 7.272 0 01-.177 1.314c-.053.234-.131.459-.208.684l-.008.021c-.064.188-.129.377-.178.571a.013.013 0 00.001.009c.001.004.004.005.006.007l.002.001.008.001c.003-.001.006-.002.008-.005.33-.394.579-.925.787-1.394.215-.463.367-.951.453-1.455.145-.939.26-1.902.26-2.853 0-.408-.075-1.797-.998-1.997-.635-.152-1.232-.023-1.83.239.253-.686.766-1.138 1.497-1.238.977-.135 1.563.45 1.997 1.331.137.34.136 1.101.116 1.473-.005.103.158.113.177.016.025-.133.063-.268.101-.406l.018-.062c.04-.146.08-.293.102-.44 0 .034.046.034.055.006.274-.869.707-1.747.508-2.628-.078-.622-.078-.893-.078-1.466 0-.155.353-1.077.888-.633.565.47.611 1.22.421 1.893a8.67 8.67 0 01-.383 1.018l-.003.008c-.166.388-.331.775-.428 1.186-.089.33-.112.675-.07 1.014.05.306.157.524.288.793l.018.037c.039.079.163.014.136-.066-.195-.574-.011-1.23.245-1.836l.186-.014c.302-.026.58-.049.873.119.345.193.601.512.718.891.254.814.108 1.727-.177 2.515a6.327 6.327 0 01-3.166 3.489.046.046 0 00-.03.026.048.048 0 00-.003.039.045.045 0 00.025.029.053.053 0 00.039.004 5.285 5.285 0 001.442-.595c1.091 1.405.344 3.349-1.002 4.283-.747.518-1.582.799-2.463.989-.199.043-.68-.005-.88.027zm4.716 14.565c.621-.324 1.085-.691 1.55-1.115.233.05.474.064.713.039.656-.064 1.278-.43 1.543-1.05a1.95 1.95 0 00.109-.345c1.025-.259 2.121.043 2.968.65-1.182.846-1.943 2.148-2.691 3.361-.436.708-.906 1.434-1.535 1.994a.615.615 0 01-.027.025 20.359 20.359 0 001.432-2.902c.029-.068-.091-.118-.121-.051a14.36 14.36 0 01-1.394 2.38c.157-1.166.212-1.284.391-1.961l.333-1.331c-1 .415-2.516.896-2.516.896a10.832 10.832 0 01-3.688.777 12.302 12.302 0 01-6.837-1.898c-.029-.018-.064.026-.037.047 1.986 1.603 4.452 2.483 7.017 2.362 1.07-.046 2.128-.24 3.142-.579-.413.169-.836.315-1.266.439-1.387.402-2.848.5-4.28.29a.04.04 0 00-.027.004.036.036 0 00-.016.022.034.034 0 00.003.026c.005.008.012.015.02.017a9.868 9.868 0 004.464.226c.207-.038.415-.083.622-.136a8.98 8.98 0 01-3.65.377 12.824 12.824 0 01-6.267-2.438c-1.756-1.299-3.176-3.098-3.743-5.217-.427-1.593-.421-3.267.123-4.797.09.981.36 1.916.641 2.878a.032.032 0 00.014.018.034.034 0 00.024.003.028.028 0 00.018-.014.03.03 0 00.003-.023c-.273-1.157-.22-2.385-.17-3.565l.003-.068c.964.557 1.396 1.807 1.224 2.874a.087.087 0 00.007.059.088.088 0 00.104.043.085.085 0 00.047-.036c.602-.808.497-1.801.01-2.594 1.423-2.847 3.306-3.987 6.656-3.434.857.237 1.758.698 2.269 1.452.478.705.735 1.632.409 2.45-.165.415-.457.676-.753.992a.82.82 0 01-.129.116c-.26.187-.819.053-.819.053s.529-.379.718-.644c.188-.264.315-.566.372-.885.121-.735-.031-1.51-.603-2.038-.499-.461-1.152-.763-1.843-.672-.014.002-.02.026-.003.028 1.238.164 2.325 1.238 1.954 2.549-.288 1.014-1.633 2.272-2.52 1.536a1.342 1.342 0 01-.171-.166c-.033-.038-.078-.101-.078-.101s.599.135.898.067a1.51 1.51 0 00.778-.445c.79-.909.184-2.256-.907-2.565-1.868-.53-3.846.419-4.805 1.981a6.588 6.588 0 00-1.143 4.158c.142 2.026 1.177 3.835 2.794 5.08a8.071 8.071 0 005.736 1.625c1.005-.11 2.031-.355 2.93-.824zm-14.651-10.515a.558.558 0 00-.018-.068l-.001-.005c-.147-.531-.378-1.367-.683-1.781-.537-.732-1.196-1.257-2.017-1.587-.171-.068-2.193-.496-2.193-.496-.856-.285-3.664-1.371-4.466-1.834 2.331 3.662 5.187 4.25 6.659 4.328 1.472.077 2.628 1.196 2.719 1.443z" fill="#C9A96A"/><path d="M210.919 143.686a5.072 5.072 0 001.525.212c.17.334.412.628.709.858l.599.33c.046.017.093.032.14.046-.565.314-1.221.522-2.076.619-1.68.19-3.017-.334-4.131-1.298-1.093-.947-1.812-2.39-1.462-3.844.314-1.3 1.453-2.415 2.873-2.378a2.784 2.784 0 011.712.679c-.596-.408-1.368-.558-2.063-.305-.469.179-.879.48-1.188.871a2.732 2.732 0 00-.565 1.353 3.281 3.281 0 001.041 2.765c.878.805 2.069 1.109 3.241 1.048a.04.04 0 00.03-.014.042.042 0 00.012-.03.046.046 0 00-.013-.031.044.044 0 00-.031-.013c-1.711-.179-3.782-1.403-3.679-3.36.045-.824.484-1.658 1.275-1.996a2.112 2.112 0 011.009-.157c-1.19.189-2.025 1.368-1.702 2.554.325 1.196 1.575 1.844 2.744 2.091zm1.662-59.166c-1.204.407-1.948.82-3.176 2.202.078-.492-.06-1.06-.261-1.458-.348-.69-.941-1.245-1.708-1.427a3.608 3.608 0 00-2.744.458c.167-.353.328-.709.484-1.069.021-.05-.054-.084-.083-.042a36.598 36.598 0 00-1.061 1.627l-.024.023a5.104 5.104 0 011.661-3.087c.01-.01-.001-.031-.015-.023a4.558 4.558 0 00-2.078 2.84 9.19 9.19 0 01.009-1.186.016.016 0 00-.004-.011.018.018 0 00-.011-.007c-.004 0-.008 0-.012.002a.025.025 0 00-.008.01 4.012 4.012 0 00-.219 2.354 5.846 5.846 0 00-.33 4.94s.428 3.695 1.524 4.73c.185.175.377.346.575.512a14.232 14.232 0 01-3.067-2.734 15.119 15.119 0 01-1.54-2.233c-.406-.724-.697-1.503-1.091-2.229a.028.028 0 00-.013-.01.023.023 0 00-.016-.001.02.02 0 00-.012.01c-.004.005-.004.01-.004.016.145.848.57 1.687.983 2.433.426.775.923 1.509 1.484 2.192a16.277 16.277 0 001.712 1.785 14.723 14.723 0 01-4.303-4.478.228.228 0 00-.036-.105c-2.442-3.695-1.684-8.757 1.521-11.746a.038.038 0 00.012-.027.035.035 0 00-.009-.028.039.039 0 00-.054-.005 8.94 8.94 0 00-3.159 4.874c.012-.088.023-.175.038-.263.148-.867.46-1.628.813-2.427.016-.037-.04-.063-.062-.032-.575.792-1.005 1.844-1.193 2.907a16.84 16.84 0 01.157-3.754c.414-1.24.963-2.368 1.909-3.312.981-.98 2.102-1.69 3.483-1.935a.032.032 0 00.018-.013.032.032 0 00.004-.021.032.032 0 00-.012-.018.03.03 0 00-.022-.006c-1.364.26-2.753.87-3.777 1.82-.162.152-.32.313-.472.481a9.324 9.324 0 011.555-1.832.033.033 0 00.011-.023.03.03 0 00-.008-.024.03.03 0 00-.022-.011.034.034 0 00-.024.007 15.28 15.28 0 00-1.854 1.816c.304-.838.679-1.648 1.122-2.421a15.251 15.251 0 013.411-4.098c.03-.021.06-.042.092-.062 1.07-.571 2.241-.868 3.482-.963.011 0 .009-.018-.001-.02a5.82 5.82 0 00-1.45.016 6.8 6.8 0 011.848-.305 7.923 7.923 0 015.485 1.969c.041.037.103-.033.065-.072-1.456-1.471-3.56-2.403-5.65-2.294a8.44 8.44 0 00-1.513.22 9.156 9.156 0 013.685-.538c.025.001.036-.04.009-.046a6.39 6.39 0 00-2.326-.108 11.287 11.287 0 013.787-.73c2.156-.038 4.338.486 6.118 1.739 1.644 1.157 2.946 2.811 3.595 4.721a8.153 8.153 0 01.252 4.403 5.735 5.735 0 01-2.524 2.599c-1.726.883-3.86.765-5.54-.178-.054-.03-.109.045-.055.08a5.993 5.993 0 005.748.415c.302-.14.59-.307.862-.499-.541.6-1.167 1.092-2.027 1.333a.034.034 0 00-.021.014.03.03 0 00-.005.025.035.035 0 00.014.02.032.032 0 00.024.006 3.513 3.513 0 001.808-.71 5.552 5.552 0 01-2.593 1.445 8.116 8.116 0 01-1.873.048c-.036-.007-.071-.012-.107-.02a.41.41 0 00-.113-.006l-.061-.007c-1.344-.187-2.707-.815-3.527-1.93-.739-1.005-1.087-2.407-.637-3.607.109-.296.253-.578.428-.84a2.502 2.502 0 001.071 2.811.318.318 0 00.481-.297c.36-.33.767-.052 1.088.217.334.3.71.548 1.117.736.568.254 1.193.35 1.811.28.273.07.555.099.837.083a3.28 3.28 0 002.743-1.868c.027-.055-.06-.094-.093-.047-.591.851-1.644 1.4-2.691 1.277a3.163 3.163 0 01-1.376-.468c.679.15 1.39.058 2.008-.26 1.217-.656 1.892-2.039 1.829-3.405-.068-1.473-.791-2.804-1.874-3.79a9.01 9.01 0 00-2.007-1.383 15.194 15.194 0 00-1.466-.632 6.65 6.65 0 00-3.291-1.334c-.027-.003-.032.035-.009.046 1.282.568 2.535 1.368 3.504 2.39.249.26.479.538.689.831.174.267.333.543.476.828.196.424.281.89.25 1.357-.069.43-.285.853-.695 1.013-.806.317-1.488-.536-1.828-1.148-.375-.674-.715-1.366-1.266-1.921-1.016-1.024-2.4-1.713-3.863-1.71a5.098 5.098 0 00-1.99.364 5.012 5.012 0 00-1.44.98 1.767 1.767 0 00-.259-.02c-1.028.001-2.123.446-2.915 1.093a.04.04 0 00-.014.026c-.002.01 0 .02.006.03a.044.044 0 00.024.017c.01.003.021.002.03-.002.747-.33 1.561-.63 2.394-.613.617.013 1.335.2 1.551.776a4.763 4.763 0 00-.777-.063 11.27 11.27 0 00-.354-.015.318.318 0 00-.182.046c-1.179.137-2.115.727-2.924 1.61a.07.07 0 00-.021.047.069.069 0 00.017.05.068.068 0 00.046.023.072.072 0 00.05-.014c1.773-1.378 4.317-1.308 6.18-.18.044.034.088.07.13.108.582.522.943 1.413.625 2.12a1.395 1.395 0 00-.793-.705c-.688-.228-1.244-.003-1.782.435-.356.29-.687.427-1.153.35-.33-.054-.655-.15-.986-.195a2.247 2.247 0 00-.859.027h-.017c-1.089-.02-2.304.593-2.665 1.675-.014.041.04.085.075.05.389-.39.822-.746 1.33-.937a6.278 6.278 0 011.285-.004.348.348 0 00.181.037.884.884 0 01.145.007l.018.003c.659.104.502 1.03.162 1.446-.444.542-1.087.867-1.59 1.347-.931.89-1.642 2.047-1.913 3.315-.494 2.32.259 4.753 2.287 6.09a.05.05 0 00.031.006.046.046 0 00.028-.015.04.04 0 00.012-.03.046.046 0 00-.008-.03 7.48 7.48 0 01-1.637-3.382c.076-.52.277-1.015.583-1.442.181.381.503.703.822 1 .528.49 1.027 1.219.869 1.988-.011.052.054.096.089.045.377-.545.507-1.13.239-1.716a.376.376 0 00-.006-.082 4.784 4.784 0 011.264-4.139c.917-.954 2.077-1.575 3.331-1.95-.011.525.128 1.03.211 1.574.104.678.112 1.56-.726 1.736a.034.034 0 00-.02.013.034.034 0 00-.006.022c0 .008.004.015.009.02.005.007.013.01.021.01.441.084.677-.45 1.167-.595.422-.126.678-.177 1.117-.15.632.04 1.527.549 1.527.549s1.782.867 2.455 1.577z" fill="#C9A96A"/><path d="M207.76 84.855c.257.158.478.368.647.617.314.477.3.909.282 1.412 0 0 0 .108-.031.185-1.124-.22-2.426.045-3.323.78.288-.868.794-1.6 1.698-2.043.044-.022.012-.083-.032-.067-.955.34-1.887 1.144-2.238 2.135a2.981 2.981 0 01.302-1.545.054.054 0 00.008-.045.058.058 0 00-.024-.037.062.062 0 00-.045-.01.06.06 0 00-.038.023c-.537.742-.762 1.677-.477 2.554-.348.537-.605 1.169-.652 1.794l-.018-.04c-.498-1.278-.557-2.73.009-3.998.535-1.196 1.697-2.206 3.088-2.01.299.037.586.138.844.295z" fill="#C9A96A"/><path fill-rule="evenodd" clip-rule="evenodd" d="M206.005 131.533l-.06.009-.038.006a10.2 10.2 0 01-1.633.739 7.054 7.054 0 01-.33.106l-1.607.097c1.031-.638 2.257-.974 3.668-.957zm-.477 5.194l-.001-.001-.001-.006.002.007z" fill="#C9A96A"/><path fill-rule="evenodd" clip-rule="evenodd" d="M202.337 132.49c1.031-.638 2.257-.974 3.668-.957l-.06.009-.038.006a10.2 10.2 0 01-1.633.739 7.054 7.054 0 01-.33.106l-1.607.097zm-.264-10.008l.041.023.023.012-.064-.035zm4.125-22.452a3.334 3.334 0 01-.047.683c.117.032-.118-.026 0 0l.047-.683c-.096-.027.097.03 0 0zm2.052-11.464a.023.023 0 00-.011-.007l-.017.051.016-.005a.022.022 0 00.014-.009l.001-.001a.025.025 0 00.004-.015.027.027 0 00-.007-.014zm-5.249 2.1c.059.152.126.301.199.448a3.732 3.732 0 00-.199-.448z" fill="#C9A96A"/><path d="M199.052 94.124c-.167.624-.196.755-.037 1.395-.579.756-.676 1.74-.403 2.643a.065.065 0 00.03.036c.014.007.031.01.047.005a.062.062 0 00.037-.028.06.06 0 00.007-.046c-.07-.546.009-1.1.231-1.604.006 1.082.645 2.179 1.466 2.831.037.03.09-.017.055-.053-.736-.736-.983-1.62-.969-2.56.629 1.017 1.779 1.71 2.956 1.877l.063.007c-.186.576-.288 1.063-.817 1.464a2.21 2.21 0 01-1.774.383c-1.43-.28-2.226-1.655-2.342-2.998-.124-1.423.526-2.28 1.45-3.352z" fill="#C9A96A"/><path d="M202.311 97.761a3.44 3.44 0 01-2.233-1.716c-.55-.794-.335-2.292.428-2.366a15.532 15.532 0 004.635 3.308c-.66.725-1.919.977-2.83.774zm24.828 47.912c.309.162 1.843.978 1.843.978 2.59.848 4.064 1.259 6.947 1.193v1.396l-1.069 1.357-.01-.015c-.396.812-.778 1.529-1.619 1.983-.632.341-1.28.406-1.965.378.312-.351.61-.714.922-1.064.404-.456.9-.803 1.351-1.21.019-.017-.003-.05-.026-.037-.517.274-.966.667-1.434 1.008a7.632 7.632 0 00-1.044.895 3.96 3.96 0 01.176-.685c.159-.41.39-.793.681-1.131.512-.616 1.227-1.038 1.939-1.408.033-.016.026-.071-.015-.071-.92.004-1.771.46-2.385 1.092l-.016.019c-.834.624-1.815.943-2.885.828a3.69 3.69 0 01-1.972-.861 5.265 5.265 0 001.607-.143c.424-.101.827-.27 1.193-.499.345-.22.564-.536.805-.85.015-.021-.012-.052-.035-.038-.312.185-.675.293-1.015.422-.269.102-.478.225-.806.288-1.429.276-2.161-1.331-3.221-1.875-.462-.237-.998-.376-1.515-.304.603-.502 1.541-.357 2.315-.036 1.092.453 2.036 1.254 3.291 1.192.003 0 .005 0 .007-.002s.004-.005.004-.008a.019.019 0 00-.002-.007l-.008-.004c-1.495-.203-2.484-1.49-3.91-1.877-.678-.184-1.6-.052-2.136.432.21-.365.514-.671.883-.889.94-.553 2.196-.932 3.124-.447zm-6.01-38.533c-4.063 1.249 6.103.662 6.103.662.679.63 1.26 1.256 1.793 1.829 1.557 1.676 2.698 2.904 4.65 2.478.993 1.097 1.577 1.581 2.712 1.987 1.452-.637 1.991-1.092 2.713-1.987 2.141.383 3.587-1.081 5.782-3.303.316-.32.648-.655.999-1.004 0 0 9.036.541 5.087-.662-3.201-.975-4.594-1.396-7.064-2.829l-6.126 6.053c0 1.189-.622 1.636-1.338 1.636-.647 0-1.34-.447-1.331-1.636l-7.155-5.957c-2.231 1.397-3.55 1.727-6.825 2.733z" fill="#C9A96A"/><path fill-rule="evenodd" clip-rule="evenodd" d="M241.799 103.042l-5.412 5.13-6.434-5.105c-.318.223-.803.697-1.105.894l6.252 5.359c.447-.893.711-.893 1.34-.893.629 0 .893 0 1.34.893l5.359-5.359c-.341-.204-.973-.687-1.34-.919z" fill="#C9A96A"/><path d="M242.246 91.456h-12.505c1.34 3.572 1.837 4.006 2.737 5.508 2.423 4.091 4.925 4.1 7.647 0 1.209-2.113 1.572-2.983 2.121-5.508z" fill="#C9A96A"/><path d="M230.833 102.388l5.554 4.521 4.519-4.521-.446-3.787c-2.234 4.02-5.806 4.02-8.486 0l-1.141 3.787z" fill="#C9A96A"/><path fill-rule="evenodd" clip-rule="evenodd" d="M229.982 66.823l17.714-10.395.177-.106.002-.001c.284-.172.638-.385.966-.5.203-.072.436-.121.663-.078a.834.834 0 01.591.453c.224.418.254.822.068 1.187-.169.332-.489.575-.828.774L230.67 69.111l-.092.266-.01.028-.005.014c-.043.125-.086.249-.126.373-.084.26-.15.505-.177.723-.026.208-.012.363.032.475.187.298.378.588.581.877.419.565.99 1.26 1.624 2.002.647.756 1.285 1.481 1.934 2.211l-3.35 2.424c-.6-1.063-1.09-2.09-1.651-3.111-.695-1.267-1.274-2.358-1.462-2.81l-.015-.023-.059-.096h-.001l-.024-.04a39.736 39.736 0 01-.738-1.237l-.233.137c-.33.193-.748.412-1.149.48a1.196 1.196 0 01-.635-.045 1.002 1.002 0 01-.524-.481c-.192-.361-.302-.725-.104-1.065a1.14 1.14 0 01.335-.345c.124-.09.276-.18.435-.272l.806-.473a4.727 4.727 0 01-.076-.191 2.195 2.195 0 01-.155-.604.63.63 0 01.056-.326.432.432 0 01.335-.24.51.51 0 00.243-.08.47.47 0 00.125-.15l.035-.064.018-.035.001-.002c.081-.154.207-.396.417-.582.212-.186 1.007-.094 1.007-.094s.407-.87.542-.936a.667.667 0 01.438-.055.753.753 0 01.39.236l.008.009.008.01c.196.252.373.52.528.804zm1.584 12.392l3.363-2.578.719-.557a.657.657 0 01.802 0l.001.001.866.674 3.636 2.75 2.117 1.383 2.511 1.284.002.002c.301.157.45.538.282.874h-.001l-2.035 4.072v2.788a.655.655 0 01-.655.654h-14.253a.654.654 0 01-.655-.654V87.12l-2.037-4.073a.654.654 0 01.288-.875l2.513-1.28 2.536-1.677zm10.233-.265l5.664-4.257.03-.117c.303-1.192-.245-2.43-1.023-3.244-.765-.802-1.896-1.334-2.846-.855l-.046.023-5.655 5.646c1.655 1.245 2.509 1.956 3.876 2.804zm-12.219 8.678v1.651h12.938v-1.65H229.58zm6.407-10.55l-8.608 5.74 2.086 4.172h13.504l2.09-4.182-9.072-5.73z" fill="#C9A96A"/><path fill-rule="evenodd" clip-rule="evenodd" d="M236 78.143l-7.47 4.98 1.487 2.973h12.4l1.482-2.964L236 78.143zm-.007 5.274a1.787 1.787 0 100-3.574 1.787 1.787 0 000 3.574zm-3.572.893a.893.893 0 11-1.787 0 .893.893 0 011.787 0zm8.039.893a.893.893 0 100-1.786.893.893 0 000 1.786z" fill="#C9A96A"/></svg>