<svg width="63" height="63" viewBox="0 0 63 63" fill="none" xmlns="http://www.w3.org/2000/svg"><g clip-path="url(#clip0)"><path d="M31.366.63c-12.82 0-23.25 10.431-23.25 23.25 0 17.153 21.451 37.54 22.365 38.4a1.294 1.294 0 001.77 0c.914-.86 22.365-21.247 22.365-38.4 0-12.819-10.429-23.25-23.25-23.25zm0 36.168c-7.122 0-12.916-5.795-12.916-12.917s5.794-12.917 12.916-12.917c7.122 0 12.917 5.795 12.917 12.917s-5.795 12.917-12.917 12.917z" fill="#C9A96A"/></g><defs><clipPath id="clip0"><path fill="#fff" transform="translate(.366 .63)" d="M0 0h62v62H0z"/></clipPath></defs></svg>