<svg width="36" height="36" viewBox="0 0 36 36" fill="none" xmlns="http://www.w3.org/2000/svg"><path stroke="#C9A96A" d="M.5.5h35v35H.5z"/><path d="M4 3.5a.5.5 0 00-.5.5v4.5a.5.5 0 101 0v-4h4a.5.5 0 000-1H4zm8.754 8.547l-8.4-8.4-.707.707 8.4 8.4.707-.707zM32.5 32a.5.5 0 01-.5.5h-4.5a.5.5 0 110-1h4v-4a.5.5 0 111 0V32zm-8.547-8.753l8.4 8.4-.707.707-8.4-8.4.707-.707zM3.5 32a.5.5 0 00.5.5h4.5a.5.5 0 000-1h-4v-4a.5.5 0 10-1 0V32zm8.547-8.753l-8.4 8.4.707.707 8.4-8.4-.707-.707zM32 3.5a.5.5 0 01.5.5v4.5a.5.5 0 01-1 0v-4h-4a.5.5 0 110-1H32zm-8.754 8.547l8.4-8.4.707.707-8.4 8.4-.707-.707z" fill="#C9A96A"/></svg>