<svg width="36" height="34" viewBox="0 0 36 34" fill="none" xmlns="http://www.w3.org/2000/svg"><path d="M33.008 26.233l-5.731-2.865a1.578 1.578 0 01-.877-1.42V19.92c.137-.168.282-.36.431-.57a13.732 13.732 0 001.773-3.48A2.38 2.38 0 0030 13.7v-2.4c0-.578-.216-1.138-.6-1.575V6.534c.034-.33.166-2.295-1.255-3.915C26.912 1.213 24.913.5 22.2.5s-4.712.713-5.945 2.118c-.86.982-1.15 2.089-1.238 2.883-1.029-.532-2.24-.801-3.617-.801-6.233 0-6.596 5.313-6.6 5.4v2.747c-.389.424-.6.913-.6 1.398v2.073c0 .647.29 1.25.787 1.659.495 1.866 1.712 3.276 2.186 3.77v1.647c0 .472-.257.905-.703 1.149l-3.99 2.503A4.754 4.754 0 000 31.222V33.5h36v-2.426a5.384 5.384 0 00-2.992-4.84zM8.4 30.957V32.3H1.2v-1.078a3.57 3.57 0 011.885-3.14l3.99-2.504a2.486 2.486 0 001.297-2.184v-2.155l-.19-.178c-.016-.015-1.61-1.52-2.081-3.573l-.055-.238-.205-.132a.954.954 0 01-.441-.8v-2.073c0-.216.147-.472.403-.704L6 13.363l-.001-3.228c.01-.172.323-4.235 5.401-4.235 1.436 0 2.645.332 3.6.986v2.839c-.384.437-.6.997-.6 1.575v2.4c0 .182.021.362.06.536.017.07.05.133.071.2.033.101.06.205.106.3l.002.003c.153.317.377.6.66.826.002.012.006.022.009.033.036.137.074.274.114.408l.049.156c.008.028.019.056.028.084a14.026 14.026 0 00.18.524c.019.05.04.094.058.142.05.126.099.247.15.367.013.029.024.06.036.088l.034.076.047.1c.06.128.117.253.177.373l.028.059.113.218a13.085 13.085 0 00.533.923l.051.081c.145.225.271.408.376.55l.075.102.042.058v1.985c0 .581-.316 1.114-.826 1.392l-1.587.866-.277-.024-.113.237-3.375 1.841A5.413 5.413 0 008.4 30.957zM34.8 32.3H9.6v-1.343a4.21 4.21 0 012.195-3.698l5.353-2.92a2.786 2.786 0 001.452-2.446v-2.411l-.116-.14-.023-.027a3.209 3.209 0 01-.1-.126l-.01-.014a5.702 5.702 0 01-.112-.15l-.002-.004a10.9 10.9 0 01-.326-.48l-.009-.013a11.692 11.692 0 01-.622-1.092v-.001a12.142 12.142 0 01-.227-.481l-.032-.07a12.077 12.077 0 01-.1-.234l-.035-.09c-.031-.079-.063-.158-.097-.249a9.906 9.906 0 01-.174-.51l-.033-.106-.011-.037a9.39 9.39 0 01-.156-.582l-.055-.238-.204-.132A1.196 1.196 0 0115.6 13.7v-2.4c0-.337.143-.65.402-.885l.198-.178V6.288l-.016-.013c-.02-.433.005-1.761.974-2.866.994-1.134 2.69-1.709 5.042-1.709 2.343 0 4.036.57 5.032 1.697 1.168 1.32.975 3.01.973 3.024l-.005 3.816.198.179c.26.234.402.547.402.884v2.4c0 .524-.343.982-.853 1.14l-.299.091-.096.297a12.56 12.56 0 01-1.7 3.428 7.895 7.895 0 01-.503.647l-.149.17v2.476a2.77 2.77 0 001.54 2.492l5.731 2.865a4.19 4.19 0 012.329 3.768V32.3z" fill="#C9A96A"/></svg>