<svg width="23" height="21" viewBox="0 0 23 21" fill="none" xmlns="http://www.w3.org/2000/svg"><g opacity=".5" fill="#576470"><path d="M20 2h-1V0h-2v2H6V0H4v2H3c-1.486 0-3 .643-3 2v15c0 1.357 1.514 2 3 2h17c1.486 0 3-.643 3-2V4c0-1.357-1.514-2-3-2zm1 17c0 .452-.505 0-1 0H3c-.495 0-1 .452-1 0V8h19v11zm0-13H2V4c0-.452.505-1 1-1h1v2h2V3h11v2h2V3h1c.495 0 1 .548 1 1v2z"/><path d="M5 9H3v2h2V9zm4 0H7v2h2V9zm4 0h-2v2h2V9zm3 0h-2v2h2V9zm4 0h-2v2h2V9zM5 13H3v2h2v-2zm4 0H7v2h2v-2zm4 0h-2v2h2v-2zm3 0h-2v2h2v-2zM5 16H3v2h2v-2zm4 0H7v2h2v-2zm4 0h-2v2h2v-2zm3 0h-2v2h2v-2zm4-3h-2v2h2v-2z"/></g></svg>