<svg xmlns="http://www.w3.org/2000/svg"><defs><clipPath id="clip0"><path fill="#fff" transform="translate(0 .52)" d="M0 0h20v20H0z"/></clipPath><clipPath id="clip0"><path fill="#fff" transform="translate(0 .52)" d="M0 0h20v20H0z"/></clipPath><clipPath id="clip0"><path fill="#fff" transform="translate(0 .549)" d="M0 0h20v20H0z"/></clipPath><clipPath id="clip0"><path fill="#fff" transform="translate(0 .52)" d="M0 0h20v20H0z"/></clipPath></defs><symbol id="icon-facebook" viewBox="0 0 11 21"><path d="M6.818 8.02V5.292c0-.752.611-1.363 1.364-1.363h1.363V.519H6.818a4.09 4.09 0 00-4.09 4.091v3.41H0v3.409h2.727v10.909h4.091v-10.91h2.727L10.91 8.02H6.82z" fill="#C9A96A"/></symbol><symbol id="icon-instagram" viewBox="0 0 20 21"><g clip-path="url(#clip0)" fill="#C9A96A"><path d="M14.586.52H5.414A5.42 5.42 0 000 5.933v9.173a5.42 5.42 0 005.414 5.414h9.172A5.42 5.42 0 0020 15.106V5.933A5.42 5.42 0 0014.586.52zM10 15.988a5.475 5.475 0 01-5.469-5.468A5.475 5.475 0 0110 5.05a5.475 5.475 0 015.469 5.47A5.475 5.475 0 0110 15.988zm5.6-9.647a1.618 1.618 0 01-1.617-1.616c0-.891.725-1.616 1.616-1.616.891 0 1.616.725 1.616 1.616 0 .89-.725 1.616-1.616 1.616z"/><path d="M10 6.223a4.301 4.301 0 00-4.296 4.297A4.301 4.301 0 0010 14.816a4.301 4.301 0 004.296-4.296A4.3 4.3 0 0010 6.223zm5.6-1.942a.444.444 0 100 .888.444.444 0 000-.888z"/></g></symbol><symbol id="icon-message" viewBox="0 0 20 21"><path d="M18.242 2.902H1.758c-.27 0-.524.067-.753.177l8.956 8.956 2.007-1.93 7.028-7.026a1.738 1.738 0 00-.754-.177zm1.582 1.006l-6.613 6.613 6.613 6.612c.11-.23.176-.483.176-.753V4.66c0-.27-.066-.524-.176-.753zM.176 3.906C.066 4.136 0 4.39 0 4.66v11.72c0 .27.066.523.176.752l6.613-6.612L.176 3.906z" fill="#C9A96A"/><path d="M12.383 11.348l-2.008 1.93a.584.584 0 01-.828 0l-1.93-1.93-6.613 6.612c.23.11.483.176.754.176h16.484c.27 0 .524-.066.753-.176l-6.612-6.612z" fill="#C9A96A"/></symbol><symbol id="icon-phone" viewBox="0 0 18 19"><path d="M16.556 12.335c-1.102 0-2.184-.173-3.21-.512-.502-.171-1.12-.014-1.427.301l-2.024 1.528c-2.347-1.253-3.792-2.698-5.028-5.028L6.35 6.653c.385-.385.523-.947.357-1.474a10.236 10.236 0 01-.513-3.215C6.194 1.167 5.546.52 4.75.52H1.444C.648.52 0 1.167 0 1.964 0 11.093 7.427 18.52 16.556 18.52c.796 0 1.444-.648 1.444-1.445V13.78c0-.797-.648-1.444-1.444-1.444z" fill="#C9A96A"/></symbol><symbol id="icon-telegram" viewBox="0 0 20 21"><g clip-path="url(#clip0)"><path d="M7.848 13.17l-.331 4.653c.473 0 .678-.203.924-.447l2.219-2.12 4.598 3.367c.844.47 1.438.222 1.665-.776l3.019-14.144c.268-1.247-.45-1.735-1.272-1.429L.928 9.067c-1.21.47-1.192 1.145-.205 1.45l4.535 1.411 10.536-6.592c.496-.328.947-.147.576.182L7.848 13.17z" fill="#C9A96A"/></g></symbol><symbol id="icon-track" viewBox="0 0 20 21"><g clip-path="url(#clip0)"><path d="M10 .549c-4.136 0-7.5 3.364-7.5 7.5 0 5.533 6.92 12.11 7.214 12.387a.417.417 0 00.572 0c.294-.278 7.214-6.854 7.214-12.387 0-4.136-3.364-7.5-7.5-7.5zm0 11.666A4.172 4.172 0 015.833 8.05 4.172 4.172 0 0110 3.882a4.172 4.172 0 014.167 4.167A4.172 4.172 0 0110 12.216z" fill="#C9A96A"/></g></symbol><symbol id="icon-viber" viewBox="0 0 20 21"><g clip-path="url(#clip0)"><path d="M14.984.52H5c-2.746 0-5 2.253-5 5.015v9.985c0 2.746 2.254 5 5 5h9.984A5.026 5.026 0 0020 15.504V5.535A5.027 5.027 0 0014.984.52zM9.46 4.63c.032-.491.492-.317.73-.349 2.985.096 5.556 2.778 5.524 5.667 0 .286.095.698-.333.698-.413 0-.302-.428-.35-.714-.396-3.063-1.825-4.508-4.936-4.984-.254-.032-.65.016-.635-.317zm4.46 5.445c-.476.064-.38-.35-.428-.619-.317-1.873-.984-2.556-2.905-2.968-.285-.064-.73-.016-.65-.445.063-.412.46-.27.761-.238 1.921.222 3.492 1.857 3.477 3.651-.032.19.095.556-.254.62zm-1.19-.984c0 .254-.032.492-.317.524-.207.032-.334-.143-.365-.35-.08-.761-.492-1.222-1.286-1.349-.238-.031-.46-.11-.35-.428.08-.207.27-.238.477-.238.857-.016 1.841.984 1.841 1.841zm3.016 5.857c-.333.905-1.46 1.825-2.428 1.81-.143-.032-.413-.08-.651-.175-4.254-1.794-7.35-4.746-9.096-8.968-.587-1.413.032-2.62 1.508-3.095a1.13 1.13 0 01.794 0c.635.222 2.238 2.396 2.27 3.031.032.492-.318.762-.65.984-.652.429-.652.969-.366 1.588.619 1.365 1.683 2.317 3.064 2.92.491.223.984.207 1.317-.301.603-.905 1.35-.857 2.159-.302.412.286.825.556 1.206.857.524.429 1.19.778.873 1.651z" fill="#C9A96A"/></g></symbol><symbol id="icon-weather" viewBox="0 0 50 42"><path d="M21.838 8.3l-2.753-2.782A.916.916 0 1017.787 6.8l2.753 2.783A.916.916 0 0021.838 8.3zM45.18 5.662a.916.916 0 00-1.399-.008l-2.783 2.753a.916.916 0 101.283 1.298l2.783-2.753a.916.916 0 00.115-1.29zm-16.587-.573a.896.896 0 00-.02-.08l-1.007-3.784a.911.911 0 10-1.762.458l1.007 3.785a.911.911 0 001.782-.38zm12.516 19.487a12.81 12.81 0 00-.534-.503l.151-.271c.188-.345.356-.7.504-1.062 2.143-5.355-.46-11.433-5.813-13.577l-.03-.012a10.448 10.448 0 00-12.945 4.53c-6.31-1.762-12.853 1.924-14.615 8.234a11.857 11.857 0 00-.437 3.225v.473a7.952 7.952 0 00.503 15.883h26.195c5.473.01 9.917-4.419 9.927-9.892a9.91 9.91 0 00-2.906-7.027zM28.346 10.852a8.601 8.601 0 016.356 0A8.636 8.636 0 0139.53 22.06a8.74 8.74 0 01-.433.89v.082a9.92 9.92 0 00-8.324-.765 11.847 11.847 0 00-3-5.38 4.248 4.248 0 015.284-1.943.91.91 0 00.67-1.691 6.04 6.04 0 00-7.368 2.406 11.887 11.887 0 00-2.21-1.314 8.607 8.607 0 014.198-3.493zM36 39.443a8.087 8.087 0 01-1.902.222H7.928A6.125 6.125 0 013.6 29.212l-.01.005a6.105 6.105 0 014.328-1.792h.418a.91.91 0 00.956-1.082 11.66 11.66 0 01-.05-.569v-.639a10.037 10.037 0 0119.94-1.474.911.911 0 001.308.684 8.025 8.025 0 011.751-.634A8.088 8.088 0 1136 39.443zm13.958-25.15a.911.911 0 00-1.06-.622l-3.784 1.007a.91.91 0 00.455 1.762l.003-.001 3.784-1.007a.91.91 0 00.602-1.139zm-.64 8.905l-3.775-1.032a.913.913 0 10-.503 1.757l3.775 1.032a.914.914 0 00.503-1.757zM36.456.614a.913.913 0 00-1.13.626l-1.032 3.775a.911.911 0 00.644 1.142.911.911 0 001.131-.616l.007-.023 1.006-3.774a.914.914 0 00-.627-1.13z" fill="#27292A"/></symbol></svg>